<?xml version="1.0" encoding="utf-8"?>
<!-- Generator: Adobe Illustrator 15.1.0, SVG Export Plug-In . SVG Version: 6.00 Build 0)  -->
<!DOCTYPE svg PUBLIC "-//W3C//DTD SVG 1.1//EN" "http://www.w3.org/Graphics/SVG/1.1/DTD/svg11.dtd">
<svg version="1.1" xmlns="http://www.w3.org/2000/svg" xmlns:xlink="http://www.w3.org/1999/xlink" x="0px" y="0px"
	 width="158.74px" height="31.181px" viewBox="0 0 158.74 31.181" enable-background="new 0 0 158.74 31.181" xml:space="preserve">
<g id="Skin">
	<g>
		<g>
			<path fill="#A09A97" d="M-1249.826,461.352c-8.964,0-16.258-7.293-16.258-16.258v-22.677c0-8.964,7.293-16.258,16.258-16.258
				h79.37c8.964,0,16.258,7.293,16.258,16.258v22.677c0,8.964-7.293,16.258-16.258,16.258H-1249.826z"/>
			<path fill="#A09A97" d="M-1170.456,406.909c8.551,0,15.508,6.957,15.508,15.508v22.677c0,8.551-6.957,15.508-15.508,15.508
				h-79.37c-8.551,0-15.508-6.957-15.508-15.508v-22.677c0-8.551,6.957-15.508,15.508-15.508H-1170.456 M-1170.456,405.409
				c-26.457,0-52.913,0-79.37,0c-9.393,0-17.008,7.615-17.008,17.008c0,7.559,0,15.118,0,22.677c0,9.393,7.615,17.008,17.008,17.008
				c26.457,0,52.914,0,79.37,0c9.394,0,17.008-7.615,17.008-17.008c0-7.559,0-15.118,0-22.677
				C-1153.448,413.024-1161.062,405.409-1170.456,405.409L-1170.456,405.409z"/>
		</g>
		<g>
			<path fill="#D3D1CB" d="M-1252.66,458.517c-8.964,0-16.258-7.293-16.258-16.258v-22.677c0-8.964,7.293-16.258,16.258-16.258
				h79.37c8.964,0,16.258,7.293,16.258,16.258v22.677c0,8.964-7.293,16.258-16.258,16.258H-1252.66z"/>
			<path fill="#A09A97" d="M-1173.29,404.074c8.551,0,15.508,6.957,15.508,15.508v22.677c0,8.551-6.957,15.508-15.508,15.508h-79.37
				c-8.551,0-15.508-6.957-15.508-15.508v-22.677c0-8.551,6.957-15.508,15.508-15.508H-1173.29 M-1173.29,402.574
				c-26.457,0-52.913,0-79.37,0c-9.393,0-17.008,7.615-17.008,17.008c0,7.559,0,15.118,0,22.677c0,9.393,7.615,17.008,17.008,17.008
				c26.457,0,52.914,0,79.37,0c9.394,0,17.008-7.615,17.008-17.008c0-7.559,0-15.118,0-22.677
				C-1156.282,410.189-1163.896,402.574-1173.29,402.574L-1173.29,402.574z"/>
		</g>
	</g>
	<g>
		<g>
			<path fill="#A09A97" d="M-116.378,58.778c-8.964,0-16.258-7.293-16.258-16.258V19.843c0-8.964,7.293-16.258,16.258-16.258h79.37
				c8.964,0,16.258,7.293,16.258,16.258V42.52c0,8.964-7.293,16.258-16.258,16.258H-116.378z"/>
			<path fill="#A09A97" d="M-37.008,4.335c8.551,0,15.508,6.957,15.508,15.508V42.52c0,8.551-6.957,15.508-15.508,15.508h-79.37
				c-8.551,0-15.508-6.957-15.508-15.508V19.843c0-8.551,6.957-15.508,15.508-15.508H-37.008 M-37.008,2.835
				c-26.457,0-52.913,0-79.37,0c-9.393,0-17.008,7.615-17.008,17.008c0,7.559,0,15.118,0,22.677c0,9.393,7.615,17.008,17.008,17.008
				c26.457,0,52.914,0,79.37,0C-27.614,59.528-20,51.913-20,42.52c0-7.559,0-15.118,0-22.677C-20,10.449-27.614,2.835-37.008,2.835
				L-37.008,2.835z"/>
		</g>
		<g>
			<path fill="#D3D1CB" d="M-119.212,55.943c-8.964,0-16.258-7.293-16.258-16.258V17.008c0-8.965,7.293-16.258,16.258-16.258h79.37
				c8.964,0,16.258,7.293,16.258,16.258v22.677c0,8.964-7.293,16.258-16.258,16.258H-119.212z"/>
			<path fill="#A09A97" d="M-39.842,1.5c8.551,0,15.508,6.957,15.508,15.508v22.677c0,8.551-6.957,15.508-15.508,15.508h-79.37
				c-8.551,0-15.508-6.957-15.508-15.508V17.008c0-8.551,6.957-15.508,15.508-15.508H-39.842 M-39.842,0c-26.457,0-52.913,0-79.37,0
				c-9.393,0-17.008,7.615-17.008,17.008c0,7.559,0,15.118,0,22.677c0,9.393,7.615,17.008,17.008,17.008c26.457,0,52.914,0,79.37,0
				c9.394,0,17.008-7.615,17.008-17.008c0-7.559,0-15.118,0-22.677C-22.834,7.615-30.449,0-39.842,0L-39.842,0z"/>
		</g>
	</g>
	<g>
		<g>
			<path fill="#A09A97" d="M-1079.747,461.352c-8.964,0-16.258-7.293-16.258-16.258v-22.677c0-8.964,7.293-16.258,16.258-16.258
				h79.37c8.964,0,16.258,7.293,16.258,16.258v22.677c0,8.964-7.293,16.258-16.258,16.258H-1079.747z"/>
			<path fill="#A09A97" d="M-1000.376,406.909c8.551,0,15.508,6.957,15.508,15.508v22.677c0,8.551-6.957,15.508-15.508,15.508
				h-79.37c-8.551,0-15.508-6.957-15.508-15.508v-22.677c0-8.551,6.957-15.508,15.508-15.508H-1000.376 M-1000.376,405.409
				c-26.457,0-52.914,0-79.37,0c-9.394,0-17.008,7.615-17.008,17.008c0,7.559,0,15.118,0,22.677c0,9.393,7.614,17.008,17.008,17.008
				c26.457,0,52.913,0,79.37,0c9.393,0,17.008-7.615,17.008-17.008c0-7.559,0-15.118,0-22.677
				C-983.369,413.024-990.983,405.409-1000.376,405.409L-1000.376,405.409z"/>
		</g>
		<g>
			<path fill="#D3D1CB" d="M-1082.581,458.517c-8.964,0-16.258-7.293-16.258-16.258v-22.677c0-8.964,7.293-16.258,16.258-16.258
				h79.37c8.964,0,16.258,7.293,16.258,16.258v22.677c0,8.964-7.293,16.258-16.258,16.258H-1082.581z"/>
			<path fill="#A09A97" d="M-1003.211,404.074c8.551,0,15.508,6.957,15.508,15.508v22.677c0,8.551-6.957,15.508-15.508,15.508
				h-79.37c-8.551,0-15.508-6.957-15.508-15.508v-22.677c0-8.551,6.957-15.508,15.508-15.508H-1003.211 M-1003.211,402.574
				c-26.457,0-52.914,0-79.37,0c-9.394,0-17.008,7.615-17.008,17.008c0,7.559,0,15.118,0,22.677c0,9.393,7.614,17.008,17.008,17.008
				c26.457,0,52.913,0,79.37,0c9.393,0,17.008-7.615,17.008-17.008c0-7.559,0-15.118,0-22.677
				C-986.203,410.189-993.818,402.574-1003.211,402.574L-1003.211,402.574z"/>
		</g>
	</g>
	<g>
		<g>
			<path fill="#A09A97" d="M-852.975,404.659c-8.964,0-16.258-7.293-16.258-16.258v-79.37c0-9.792-7.966-17.758-17.758-17.758
				h-22.677c-9.792,0-17.758,7.966-17.758,17.758v79.37c0,8.965-7.293,16.258-16.258,16.258h-22.677
				c-8.964,0-16.258-7.293-16.258-16.258v-22.677c0-9.792-7.966-17.758-17.758-17.758h-249.449c-9.792,0-17.758,7.966-17.758,17.758
				v22.677c0,8.965-7.293,16.258-16.258,16.258h-22.677c-8.965,0-16.258-7.293-16.258-16.258v-79.37
				c0-9.792-7.966-17.758-17.758-17.758h-22.677c-9.792,0-17.758,7.966-17.758,17.758v79.37c0,8.965-7.293,16.258-16.258,16.258
				h-22.677c-8.965,0-16.258-7.293-16.258-16.258V252.338c0-8.965,7.293-16.258,16.258-16.258h22.677
				c9.792,0,17.758-7.966,17.758-17.758v-22.677c0-8.965,7.293-16.258,16.258-16.258h22.677c9.792,0,17.758-7.966,17.758-17.758
				v-22.677c0-8.965,7.293-16.258,16.258-16.258h22.677c9.792,0,17.758-7.966,17.758-17.758V82.259
				c0-9.792-7.966-17.758-17.758-17.758h-22.677c-8.965,0-16.258-7.293-16.258-16.258V25.566c0-8.964,7.293-16.257,16.258-16.257
				h22.677c8.964,0,16.258,7.293,16.258,16.257v22.677c0,9.792,7.966,17.758,17.758,17.758h22.677
				c8.965,0,16.258,7.293,16.258,16.258v22.677c0,9.792,7.966,17.758,17.758,17.758h136.063c9.792,0,17.758-7.966,17.758-17.758
				V82.259c0-8.964,7.293-16.258,16.258-16.258h22.677c9.792,0,17.758-7.966,17.758-17.758V25.566
				c0-8.964,7.293-16.257,16.258-16.257h22.677c8.965,0,16.258,7.293,16.258,16.257v22.677c0,8.964-7.293,16.258-16.258,16.258
				h-22.677c-9.792,0-17.758,7.966-17.758,17.758v22.677c0,9.792,7.966,17.758,17.758,17.758h22.677
				c8.965,0,16.258,7.293,16.258,16.258v22.677c0,9.792,7.966,17.758,17.758,17.758h22.677c8.964,0,16.258,7.293,16.258,16.258
				v22.677c0,9.792,7.966,17.758,17.758,17.758h22.677c8.965,0,16.258,7.293,16.258,16.258v136.063
				c0,8.965-7.293,16.258-16.258,16.258H-852.975z M-1011.715,169.383c-33.237,0-60.277,27.041-60.277,60.278
				c0,33.237,27.041,60.277,60.277,60.277c33.237,0,60.278-27.041,60.278-60.277C-951.438,196.424-978.478,169.383-1011.715,169.383
				z M-1238.487,169.383c-33.237,0-60.278,27.041-60.278,60.278c0,33.237,27.041,60.277,60.278,60.277
				c33.237,0,60.277-27.041,60.277-60.277C-1178.209,196.424-1205.25,169.383-1238.487,169.383z"/>
			<path fill="#A09A97" d="M-943.684,10.059c8.551,0,15.508,6.957,15.508,15.507v22.677c0,8.551-6.957,15.508-15.508,15.508h-22.677
				c-10.205,0-18.508,8.303-18.508,18.508v22.677c0,10.205,8.303,18.508,18.508,18.508h22.677c8.551,0,15.508,6.957,15.508,15.508
				v22.677c0,10.205,8.303,18.508,18.508,18.508h22.677c8.551,0,15.508,6.957,15.508,15.508v22.677
				c0,10.205,8.303,18.508,18.508,18.508h22.677c8.551,0,15.508,6.957,15.508,15.508v136.063c0,8.551-6.957,15.508-15.508,15.508
				h-22.677c-8.551,0-15.508-6.957-15.508-15.508v-79.37c0-10.206-8.303-18.508-18.508-18.508h-22.677
				c-10.205,0-18.508,8.303-18.508,18.508v79.37c0,8.551-6.957,15.508-15.508,15.508h-22.677c-8.551,0-15.508-6.957-15.508-15.508
				v-22.677c0-10.205-8.303-18.508-18.508-18.508h-249.449c-10.205,0-18.508,8.303-18.508,18.508v22.677
				c0,8.551-6.957,15.508-15.508,15.508h-22.677c-8.551,0-15.508-6.957-15.508-15.508v-79.37c0-10.206-8.303-18.508-18.508-18.508
				h-22.677c-10.205,0-18.508,8.303-18.508,18.508v79.37c0,8.551-6.957,15.508-15.508,15.508h-22.677
				c-8.551,0-15.508-6.957-15.508-15.508V252.338c0-8.551,6.957-15.508,15.508-15.508h22.677c10.205,0,18.508-8.303,18.508-18.508
				v-22.677c0-8.551,6.957-15.508,15.508-15.508h22.677c10.205,0,18.508-8.303,18.508-18.508v-22.677
				c0-8.551,6.957-15.508,15.508-15.508h22.677c10.205,0,18.508-8.303,18.508-18.508V82.259c0-10.205-8.303-18.508-18.508-18.508
				h-22.677c-8.551,0-15.508-6.957-15.508-15.508V25.566c0-8.551,6.957-15.507,15.508-15.507h22.677
				c8.551,0,15.508,6.957,15.508,15.507v22.677c0,10.205,8.303,18.508,18.508,18.508h22.677c8.551,0,15.508,6.957,15.508,15.508
				v22.677c0,10.205,8.303,18.508,18.508,18.508h136.063c10.205,0,18.508-8.303,18.508-18.508V82.259
				c0-8.551,6.957-15.508,15.508-15.508h22.677c10.205,0,18.508-8.303,18.508-18.508V25.566c0-8.551,6.957-15.507,15.508-15.507
				H-943.684 M-1011.715,290.688c33.651,0,61.028-27.377,61.028-61.027c0-33.651-27.377-61.028-61.028-61.028
				c-33.65,0-61.027,27.377-61.027,61.028C-1072.743,263.311-1045.366,290.688-1011.715,290.688 M-1238.487,290.688
				c33.65,0,61.027-27.377,61.027-61.027c0-33.651-27.377-61.028-61.027-61.028c-33.651,0-61.028,27.377-61.028,61.028
				C-1299.515,263.311-1272.138,290.688-1238.487,290.688 M-943.684,8.559c-7.559,0-15.118,0-22.677,0
				c-9.393,0-17.008,7.614-17.008,17.007c0,7.559,0,15.118,0,22.677c0,9.393-7.615,17.008-17.008,17.008c-7.559,0-15.118,0-22.677,0
				c-9.393,0-17.008,7.615-17.008,17.008c0,7.559,0,15.118,0,22.677c0,9.393-7.615,17.008-17.008,17.008
				c-45.354,0-90.709,0-136.063,0c-9.393,0-17.008-7.615-17.008-17.008c0-7.559,0-15.118,0-22.677
				c0-9.393-7.615-17.008-17.008-17.008c-7.559,0-15.118,0-22.677,0c-9.393,0-17.008-7.615-17.008-17.008c0-7.559,0-15.118,0-22.677
				c0-9.393-7.615-17.007-17.008-17.007c-7.559,0-15.118,0-22.677,0c-9.393,0-17.008,7.614-17.008,17.007c0,7.559,0,15.118,0,22.677
				c0,9.393,7.615,17.008,17.008,17.008c7.559,0,15.118,0,22.677,0c9.393,0,17.008,7.615,17.008,17.008c0,7.559,0,15.118,0,22.677
				c0,9.393-7.615,17.008-17.008,17.008c-7.559,0-15.118,0-22.677,0c-9.393,0-17.008,7.615-17.008,17.008c0,7.559,0,15.118,0,22.677
				c0,9.394-7.615,17.008-17.008,17.008c-7.559,0-15.118,0-22.677,0c-9.393,0-17.008,7.615-17.008,17.008c0,7.559,0,15.118,0,22.677
				c0,9.394-7.615,17.008-17.008,17.008c-7.559,0-15.118,0-22.677,0c-9.393,0-17.008,7.615-17.008,17.008
				c0,45.354,0,90.708,0,136.063c0,9.393,7.615,17.008,17.008,17.008c7.559,0,15.118,0,22.677,0c9.393,0,17.008-7.615,17.008-17.008
				c0-26.457,0-52.914,0-79.37c0-9.394,7.615-17.008,17.008-17.008c7.559,0,15.118,0,22.677,0c9.393,0,17.008,7.615,17.008,17.008
				c0,26.457,0,52.913,0,79.37c0,9.393,7.615,17.008,17.008,17.008c7.559,0,15.118,0,22.677,0c9.393,0,17.008-7.615,17.008-17.008
				c0-7.559,0-15.118,0-22.677c0-9.394,7.615-17.008,17.008-17.008c83.15,0,166.299,0,249.449,0c9.393,0,17.008,7.614,17.008,17.008
				c0,7.559,0,15.118,0,22.677c0,9.393,7.615,17.008,17.008,17.008c7.559,0,15.118,0,22.677,0c9.393,0,17.008-7.615,17.008-17.008
				c0-26.457,0-52.914,0-79.37c0-9.394,7.615-17.008,17.008-17.008c7.559,0,15.118,0,22.677,0c9.393,0,17.008,7.615,17.008,17.008
				c0,26.457,0,52.913,0,79.37c0,9.393,7.615,17.008,17.008,17.008c7.559,0,15.118,0,22.677,0c9.393,0,17.008-7.615,17.008-17.008
				c0-45.354,0-90.709,0-136.063c0-9.394-7.615-17.008-17.008-17.008c-7.559,0-15.118,0-22.677,0
				c-9.393,0-17.008-7.614-17.008-17.008c0-7.559,0-15.118,0-22.677c0-9.394-7.615-17.008-17.008-17.008c-7.559,0-15.118,0-22.677,0
				c-9.393,0-17.008-7.614-17.008-17.008c0-7.559,0-15.118,0-22.677c0-9.394-7.615-17.008-17.008-17.008c-7.559,0-15.118,0-22.677,0
				c-9.393,0-17.008-7.615-17.008-17.008c0-7.559,0-15.118,0-22.677c0-9.393,7.615-17.008,17.008-17.008c7.559,0,15.118,0,22.677,0
				c9.393,0,17.008-7.615,17.008-17.008c0-7.559,0-15.118,0-22.677C-926.676,16.173-934.291,8.559-943.684,8.559L-943.684,8.559z
				 M-1011.715,289.188c-32.876,0-59.527-26.651-59.527-59.527c0-32.876,26.651-59.528,59.527-59.528
				c32.876,0,59.528,26.651,59.528,59.528C-952.188,262.537-978.839,289.188-1011.715,289.188L-1011.715,289.188z
				 M-1238.487,289.188c-32.876,0-59.528-26.651-59.528-59.527c0-32.876,26.651-59.528,59.528-59.528
				c32.876,0,59.527,26.651,59.527,59.528C-1178.959,262.537-1205.611,289.188-1238.487,289.188L-1238.487,289.188z"/>
		</g>
		<g>
			<path fill="#D3D1CB" d="M-855.81,401.824c-8.964,0-16.258-7.293-16.258-16.258v-79.37c0-9.792-7.966-17.758-17.758-17.758
				h-22.677c-9.792,0-17.758,7.966-17.758,17.758v79.37c0,8.965-7.293,16.258-16.258,16.258h-22.677
				c-8.964,0-16.258-7.293-16.258-16.258v-22.677c0-9.792-7.966-17.758-17.758-17.758h-249.449c-9.792,0-17.758,7.966-17.758,17.758
				v22.677c0,8.965-7.293,16.258-16.258,16.258h-22.677c-8.965,0-16.258-7.293-16.258-16.258v-79.37
				c0-9.792-7.966-17.758-17.758-17.758h-22.677c-9.792,0-17.758,7.966-17.758,17.758v79.37c0,8.965-7.293,16.258-16.258,16.258
				h-22.677c-8.965,0-16.258-7.293-16.258-16.258V249.504c0-8.965,7.293-16.258,16.258-16.258h22.677
				c9.792,0,17.758-7.966,17.758-17.758v-22.677c0-8.965,7.293-16.258,16.258-16.258h22.677c9.792,0,17.758-7.966,17.758-17.758
				v-22.677c0-8.965,7.293-16.258,16.258-16.258h22.677c9.792,0,17.758-7.966,17.758-17.758V79.425
				c0-9.792-7.966-17.758-17.758-17.758h-22.677c-8.965,0-16.258-7.293-16.258-16.258V22.732c0-8.964,7.293-16.258,16.258-16.258
				h22.677c8.964,0,16.258,7.293,16.258,16.258v22.677c0,9.792,7.966,17.758,17.758,17.758h22.677
				c8.965,0,16.258,7.293,16.258,16.258v22.677c0,9.792,7.966,17.758,17.758,17.758h136.063c9.792,0,17.758-7.966,17.758-17.758
				V79.425c0-8.964,7.293-16.258,16.258-16.258h22.677c9.792,0,17.758-7.966,17.758-17.758V22.732
				c0-8.964,7.293-16.258,16.258-16.258h22.677c8.965,0,16.258,7.293,16.258,16.258v22.677c0,8.964-7.293,16.258-16.258,16.258
				h-22.677c-9.792,0-17.758,7.966-17.758,17.758v22.677c0,9.792,7.966,17.758,17.758,17.758h22.677
				c8.965,0,16.258,7.293,16.258,16.258v22.677c0,9.792,7.966,17.758,17.758,17.758h22.677c8.964,0,16.258,7.293,16.258,16.258
				v22.677c0,9.792,7.966,17.758,17.758,17.758h22.677c8.965,0,16.258,7.293,16.258,16.258v136.063
				c0,8.965-7.293,16.258-16.258,16.258H-855.81z M-1014.55,166.549c-33.237,0-60.277,27.041-60.277,60.278
				c0,33.237,27.041,60.277,60.277,60.277c33.237,0,60.278-27.041,60.278-60.277C-954.272,193.589-981.312,166.549-1014.55,166.549z
				 M-1241.321,166.549c-33.237,0-60.278,27.041-60.278,60.278c0,33.237,27.041,60.277,60.278,60.277
				c33.237,0,60.277-27.041,60.277-60.277C-1181.044,193.589-1208.084,166.549-1241.321,166.549z"/>
			<path fill="#A09A97" d="M-946.518,7.224c8.551,0,15.508,6.957,15.508,15.508v22.677c0,8.551-6.957,15.508-15.508,15.508h-22.677
				c-10.205,0-18.508,8.303-18.508,18.508v22.677c0,10.205,8.303,18.508,18.508,18.508h22.677c8.551,0,15.508,6.957,15.508,15.508
				v22.677c0,10.205,8.303,18.508,18.508,18.508h22.677c8.551,0,15.508,6.957,15.508,15.508v22.677
				c0,10.205,8.303,18.508,18.508,18.508h22.677c8.551,0,15.508,6.957,15.508,15.508v136.063c0,8.551-6.957,15.508-15.508,15.508
				h-22.677c-8.551,0-15.508-6.957-15.508-15.508v-79.37c0-10.206-8.303-18.508-18.508-18.508h-22.677
				c-10.205,0-18.508,8.303-18.508,18.508v79.37c0,8.551-6.957,15.508-15.508,15.508h-22.677c-8.551,0-15.508-6.957-15.508-15.508
				v-22.677c0-10.205-8.303-18.508-18.508-18.508h-249.449c-10.205,0-18.508,8.303-18.508,18.508v22.677
				c0,8.551-6.957,15.508-15.508,15.508h-22.677c-8.551,0-15.508-6.957-15.508-15.508v-79.37c0-10.206-8.303-18.508-18.508-18.508
				h-22.677c-10.205,0-18.508,8.303-18.508,18.508v79.37c0,8.551-6.957,15.508-15.508,15.508h-22.677
				c-8.551,0-15.508-6.957-15.508-15.508V249.504c0-8.551,6.957-15.508,15.508-15.508h22.677c10.205,0,18.508-8.303,18.508-18.508
				v-22.677c0-8.551,6.957-15.508,15.508-15.508h22.677c10.205,0,18.508-8.303,18.508-18.508v-22.677
				c0-8.551,6.957-15.508,15.508-15.508h22.677c10.205,0,18.508-8.303,18.508-18.508V79.425c0-10.205-8.303-18.508-18.508-18.508
				h-22.677c-8.551,0-15.508-6.957-15.508-15.508V22.732c0-8.551,6.957-15.508,15.508-15.508h22.677
				c8.551,0,15.508,6.957,15.508,15.508v22.677c0,10.205,8.303,18.508,18.508,18.508h22.677c8.551,0,15.508,6.957,15.508,15.508
				v22.677c0,10.205,8.303,18.508,18.508,18.508h136.063c10.205,0,18.508-8.303,18.508-18.508V79.425
				c0-8.551,6.957-15.508,15.508-15.508h22.677c10.205,0,18.508-8.303,18.508-18.508V22.732c0-8.551,6.957-15.508,15.508-15.508
				H-946.518 M-1014.55,287.854c33.651,0,61.028-27.377,61.028-61.027c0-33.651-27.377-61.028-61.028-61.028
				c-33.65,0-61.027,27.377-61.027,61.028C-1075.577,260.477-1048.2,287.854-1014.55,287.854 M-1241.321,287.854
				c33.65,0,61.027-27.377,61.027-61.027c0-33.651-27.377-61.028-61.027-61.028c-33.651,0-61.028,27.377-61.028,61.028
				C-1302.349,260.477-1274.972,287.854-1241.321,287.854 M-946.518,5.724c-7.559,0-15.118,0-22.677,0
				c-9.393,0-17.008,7.615-17.008,17.008c0,7.559,0,15.118,0,22.677c0,9.393-7.615,17.008-17.008,17.008c-7.559,0-15.118,0-22.677,0
				c-9.393,0-17.008,7.615-17.008,17.008c0,7.559,0,15.118,0,22.677c0,9.393-7.615,17.008-17.008,17.008
				c-45.354,0-90.709,0-136.063,0c-9.393,0-17.008-7.615-17.008-17.008c0-7.559,0-15.118,0-22.677
				c0-9.393-7.615-17.008-17.008-17.008c-7.559,0-15.118,0-22.677,0c-9.393,0-17.008-7.615-17.008-17.008c0-7.559,0-15.118,0-22.677
				c0-9.393-7.615-17.008-17.008-17.008c-7.559,0-15.118,0-22.677,0c-9.393,0-17.008,7.615-17.008,17.008c0,7.559,0,15.118,0,22.677
				c0,9.393,7.615,17.008,17.008,17.008c7.559,0,15.118,0,22.677,0c9.393,0,17.008,7.615,17.008,17.008c0,7.559,0,15.118,0,22.677
				c0,9.393-7.615,17.008-17.008,17.008c-7.559,0-15.118,0-22.677,0c-9.393,0-17.008,7.615-17.008,17.008c0,7.559,0,15.118,0,22.677
				c0,9.394-7.615,17.008-17.008,17.008c-7.559,0-15.118,0-22.677,0c-9.393,0-17.008,7.615-17.008,17.008c0,7.559,0,15.118,0,22.677
				c0,9.394-7.615,17.008-17.008,17.008c-7.559,0-15.118,0-22.677,0c-9.393,0-17.008,7.615-17.008,17.008
				c0,45.354,0,90.708,0,136.063c0,9.393,7.615,17.008,17.008,17.008c7.559,0,15.118,0,22.677,0c9.393,0,17.008-7.615,17.008-17.008
				c0-26.457,0-52.914,0-79.37c0-9.394,7.615-17.008,17.008-17.008c7.559,0,15.118,0,22.677,0c9.393,0,17.008,7.615,17.008,17.008
				c0,26.457,0,52.913,0,79.37c0,9.393,7.615,17.008,17.008,17.008c7.559,0,15.118,0,22.677,0c9.393,0,17.008-7.615,17.008-17.008
				c0-7.559,0-15.118,0-22.677c0-9.394,7.615-17.008,17.008-17.008c83.15,0,166.299,0,249.449,0c9.393,0,17.008,7.614,17.008,17.008
				c0,7.559,0,15.118,0,22.677c0,9.393,7.615,17.008,17.008,17.008c7.559,0,15.118,0,22.677,0c9.393,0,17.008-7.615,17.008-17.008
				c0-26.457,0-52.914,0-79.37c0-9.394,7.615-17.008,17.008-17.008c7.559,0,15.118,0,22.677,0c9.393,0,17.008,7.615,17.008,17.008
				c0,26.457,0,52.913,0,79.37c0,9.393,7.615,17.008,17.008,17.008c7.559,0,15.118,0,22.677,0c9.393,0,17.008-7.615,17.008-17.008
				c0-45.354,0-90.709,0-136.063c0-9.394-7.615-17.008-17.008-17.008c-7.559,0-15.118,0-22.677,0
				c-9.393,0-17.008-7.614-17.008-17.008c0-7.559,0-15.118,0-22.677c0-9.394-7.615-17.008-17.008-17.008c-7.559,0-15.118,0-22.677,0
				c-9.393,0-17.008-7.614-17.008-17.008c0-7.559,0-15.118,0-22.677c0-9.394-7.615-17.008-17.008-17.008c-7.559,0-15.118,0-22.677,0
				c-9.393,0-17.008-7.615-17.008-17.008c0-7.559,0-15.118,0-22.677c0-9.393,7.615-17.008,17.008-17.008c7.559,0,15.118,0,22.677,0
				c9.393,0,17.008-7.615,17.008-17.008c0-7.559,0-15.118,0-22.677C-929.51,13.339-937.125,5.724-946.518,5.724L-946.518,5.724z
				 M-1014.55,286.354c-32.876,0-59.527-26.651-59.527-59.527c0-32.876,26.651-59.528,59.527-59.528
				c32.876,0,59.528,26.651,59.528,59.528C-955.022,259.702-981.673,286.354-1014.55,286.354L-1014.55,286.354z M-1241.321,286.354
				c-32.876,0-59.528-26.651-59.528-59.527c0-32.876,26.651-59.528,59.528-59.528c32.876,0,59.527,26.651,59.527,59.528
				C-1181.794,259.702-1208.445,286.354-1241.321,286.354L-1241.321,286.354z"/>
		</g>
	</g>
	<g>
		<g>
			<path fill="#A09A97" d="M-204.409,398.935c-8.964,0-16.258-7.293-16.258-16.258v-79.37c0-9.792-7.966-17.758-17.758-17.758
				h-22.678c-9.792,0-17.758,7.966-17.758,17.758v79.37c0,8.965-7.293,16.258-16.258,16.258h-22.677
				c-8.964,0-16.258-7.293-16.258-16.258V360c0-9.792-7.966-17.758-17.758-17.758h-249.449c-9.792,0-17.758,7.966-17.758,17.758
				v22.677c0,8.965-7.293,16.258-16.258,16.258h-22.678c-8.965,0-16.258-7.293-16.258-16.258v-79.37
				c0-9.792-7.966-17.758-17.758-17.758h-22.677c-9.792,0-17.758,7.966-17.758,17.758v79.37c0,8.965-7.293,16.258-16.258,16.258
				h-22.678c-8.965,0-16.258-7.293-16.258-16.258V246.614c0-8.965,7.293-16.258,16.258-16.258h22.678
				c9.792,0,17.758-7.966,17.758-17.758v-22.677c0-8.965,7.293-16.258,16.258-16.258h22.677c9.792,0,17.758-7.966,17.758-17.758
				v-22.677c0-8.965,7.293-16.258,16.258-16.258h22.678c9.792,0,17.758-7.966,17.758-17.758V76.535
				c0-9.792-7.966-17.758-17.758-17.758h-22.678c-8.965,0-16.258-7.293-16.258-16.258V19.842c0-8.964,7.293-16.257,16.258-16.257
				h22.678c8.964,0,16.258,7.293,16.258,16.257v22.677c0,9.792,7.966,17.758,17.758,17.758h22.677
				c8.965,0,16.258,7.293,16.258,16.258v22.677c0,9.792,7.966,17.758,17.758,17.758h136.063c9.792,0,17.758-7.966,17.758-17.758
				V76.535c0-8.964,7.293-16.258,16.258-16.258h22.678c9.792,0,17.758-7.966,17.758-17.758V19.842
				c0-8.964,7.293-16.257,16.258-16.257h22.677c8.965,0,16.258,7.293,16.258,16.257v22.677c0,8.964-7.293,16.258-16.258,16.258
				h-22.677c-9.792,0-17.758,7.966-17.758,17.758v22.677c0,9.792,7.966,17.758,17.758,17.758h22.677
				c8.965,0,16.258,7.293,16.258,16.258v22.677c0,9.792,7.966,17.758,17.758,17.758h22.678c8.964,0,16.258,7.293,16.258,16.258
				v22.677c0,9.792,7.966,17.758,17.758,17.758h22.677c8.965,0,16.258,7.293,16.258,16.258v136.063
				c0,8.965-7.293,16.258-16.258,16.258H-204.409z M-363.149,163.659c-33.237,0-60.277,27.041-60.277,60.278
				c0,33.237,27.041,60.277,60.277,60.277s60.277-27.041,60.277-60.277C-302.872,190.699-329.912,163.659-363.149,163.659z
				 M-589.92,163.659c-33.238,0-60.278,27.041-60.278,60.278c0,33.237,27.041,60.277,60.278,60.277
				c33.237,0,60.277-27.041,60.277-60.277C-529.643,190.699-556.684,163.659-589.92,163.659z"/>
			<path fill="#A09A97" d="M-295.118,4.335c8.551,0,15.508,6.957,15.508,15.507v22.677c0,8.551-6.957,15.508-15.508,15.508h-22.677
				c-10.205,0-18.508,8.303-18.508,18.508v22.677c0,10.205,8.303,18.508,18.508,18.508h22.677c8.551,0,15.508,6.957,15.508,15.508
				v22.677c0,10.205,8.303,18.508,18.508,18.508h22.678c8.551,0,15.508,6.957,15.508,15.508v22.677
				c0,10.205,8.303,18.508,18.508,18.508h22.677c8.551,0,15.508,6.957,15.508,15.508v136.063c0,8.551-6.957,15.508-15.508,15.508
				h-22.677c-8.551,0-15.508-6.957-15.508-15.508v-79.37c0-10.206-8.303-18.508-18.508-18.508h-22.678
				c-10.205,0-18.508,8.303-18.508,18.508v79.37c0,8.551-6.957,15.508-15.508,15.508h-22.677c-8.551,0-15.508-6.957-15.508-15.508
				V360c0-10.205-8.303-18.508-18.508-18.508h-249.449c-10.205,0-18.508,8.303-18.508,18.508v22.677
				c0,8.551-6.957,15.508-15.508,15.508h-22.678c-8.551,0-15.508-6.957-15.508-15.508v-79.37c0-10.206-8.303-18.508-18.508-18.508
				h-22.677c-10.205,0-18.508,8.303-18.508,18.508v79.37c0,8.551-6.957,15.508-15.508,15.508h-22.678
				c-8.551,0-15.508-6.957-15.508-15.508V246.614c0-8.551,6.957-15.508,15.508-15.508h22.678c10.205,0,18.508-8.303,18.508-18.508
				v-22.677c0-8.551,6.957-15.508,15.508-15.508h22.677c10.205,0,18.508-8.303,18.508-18.508v-22.677
				c0-8.551,6.957-15.508,15.508-15.508h22.678c10.205,0,18.508-8.303,18.508-18.508V76.535c0-10.205-8.303-18.508-18.508-18.508
				h-22.678c-8.551,0-15.508-6.957-15.508-15.508V19.842c0-8.551,6.957-15.507,15.508-15.507h22.678
				c8.551,0,15.508,6.957,15.508,15.507v22.677c0,10.205,8.303,18.508,18.508,18.508h22.677c8.551,0,15.508,6.957,15.508,15.508
				v22.677c0,10.205,8.303,18.508,18.508,18.508h136.063c10.205,0,18.508-8.303,18.508-18.508V76.535
				c0-8.551,6.957-15.508,15.508-15.508h22.678c10.205,0,18.508-8.303,18.508-18.508V19.842c0-8.551,6.957-15.507,15.508-15.507
				H-295.118 M-363.149,284.964c33.65,0,61.027-27.377,61.027-61.027c0-33.651-27.377-61.028-61.027-61.028
				s-61.027,27.377-61.027,61.028C-424.176,257.587-396.799,284.964-363.149,284.964 M-589.92,284.964
				c33.65,0,61.027-27.377,61.027-61.027c0-33.651-27.377-61.028-61.027-61.028c-33.651,0-61.028,27.377-61.028,61.028
				C-650.949,257.587-623.572,284.964-589.92,284.964 M-295.118,2.835c-7.559,0-15.118,0-22.677,0
				c-9.394,0-17.008,7.614-17.008,17.007c0,7.559,0,15.118,0,22.677c0,9.393-7.615,17.008-17.008,17.008c-7.56,0-15.118,0-22.678,0
				c-9.393,0-17.008,7.615-17.008,17.008c0,7.559,0,15.118,0,22.677c0,9.393-7.614,17.008-17.008,17.008
				c-45.354,0-90.709,0-136.063,0c-9.393,0-17.008-7.615-17.008-17.008c0-7.559,0-15.118,0-22.677
				c0-9.393-7.614-17.008-17.008-17.008c-7.559,0-15.118,0-22.677,0c-9.394,0-17.008-7.615-17.008-17.008c0-7.559,0-15.118,0-22.677
				c0-9.393-7.615-17.007-17.008-17.007c-7.56,0-15.118,0-22.678,0c-9.393,0-17.008,7.614-17.008,17.007c0,7.559,0,15.118,0,22.677
				c0,9.393,7.615,17.008,17.008,17.008c7.56,0,15.118,0,22.678,0c9.393,0,17.008,7.615,17.008,17.008c0,7.559,0,15.118,0,22.677
				c0,9.393-7.615,17.008-17.008,17.008c-7.56,0-15.118,0-22.678,0c-9.393,0-17.008,7.615-17.008,17.008c0,7.559,0,15.118,0,22.677
				c0,9.394-7.614,17.008-17.008,17.008c-7.559,0-15.118,0-22.677,0c-9.394,0-17.008,7.615-17.008,17.008c0,7.559,0,15.118,0,22.677
				c0,9.394-7.615,17.008-17.008,17.008c-7.56,0-15.118,0-22.678,0c-9.393,0-17.008,7.615-17.008,17.008
				c0,45.354,0,90.708,0,136.063c0,9.393,7.615,17.008,17.008,17.008c7.56,0,15.118,0,22.678,0c9.393,0,17.008-7.615,17.008-17.008
				c0-26.457,0-52.914,0-79.37c0-9.394,7.614-17.008,17.008-17.008c7.559,0,15.118,0,22.677,0c9.394,0,17.008,7.615,17.008,17.008
				c0,26.457,0,52.913,0,79.37c0,9.393,7.615,17.008,17.008,17.008c7.56,0,15.118,0,22.678,0c9.393,0,17.008-7.615,17.008-17.008
				c0-7.559,0-15.118,0-22.677c0-9.394,7.614-17.008,17.008-17.008c83.149,0,166.299,0,249.449,0
				c9.393,0,17.008,7.614,17.008,17.008c0,7.559,0,15.118,0,22.677c0,9.393,7.614,17.008,17.008,17.008c7.559,0,15.118,0,22.677,0
				c9.394,0,17.008-7.615,17.008-17.008c0-26.457,0-52.914,0-79.37c0-9.394,7.615-17.008,17.008-17.008c7.56,0,15.118,0,22.678,0
				c9.393,0,17.008,7.615,17.008,17.008c0,26.457,0,52.913,0,79.37c0,9.393,7.614,17.008,17.008,17.008c7.559,0,15.118,0,22.677,0
				c9.394,0,17.008-7.615,17.008-17.008c0-45.354,0-90.709,0-136.063c0-9.394-7.614-17.008-17.008-17.008
				c-7.559,0-15.118,0-22.677,0c-9.394,0-17.008-7.614-17.008-17.008c0-7.559,0-15.118,0-22.677c0-9.394-7.615-17.008-17.008-17.008
				c-7.56,0-15.118,0-22.678,0c-9.393,0-17.008-7.614-17.008-17.008c0-7.559,0-15.118,0-22.677c0-9.394-7.614-17.008-17.008-17.008
				c-7.559,0-15.118,0-22.677,0c-9.394,0-17.008-7.615-17.008-17.008c0-7.559,0-15.118,0-22.677c0-9.393,7.614-17.008,17.008-17.008
				c7.559,0,15.118,0,22.677,0c9.394,0,17.008-7.615,17.008-17.008c0-7.559,0-15.118,0-22.677
				C-278.11,10.449-285.724,2.835-295.118,2.835L-295.118,2.835z M-363.149,283.464c-32.876,0-59.527-26.651-59.527-59.527
				c0-32.876,26.651-59.528,59.527-59.528s59.527,26.651,59.527,59.528C-303.622,256.813-330.273,283.464-363.149,283.464
				L-363.149,283.464z M-589.92,283.464c-32.877,0-59.528-26.651-59.528-59.527c0-32.876,26.651-59.528,59.528-59.528
				c32.876,0,59.527,26.651,59.527,59.528C-530.393,256.813-557.044,283.464-589.92,283.464L-589.92,283.464z"/>
		</g>
		<g>
			<path fill="#D3D1CB" d="M-207.243,396.1c-8.964,0-16.258-7.293-16.258-16.258v-79.37c0-9.792-7.966-17.758-17.758-17.758h-22.678
				c-9.792,0-17.758,7.966-17.758,17.758v79.37c0,8.965-7.293,16.258-16.258,16.258h-22.677c-8.964,0-16.258-7.293-16.258-16.258
				v-22.677c0-9.792-7.966-17.758-17.758-17.758h-249.449c-9.792,0-17.758,7.966-17.758,17.758v22.677
				c0,8.965-7.293,16.258-16.258,16.258h-22.678c-8.965,0-16.258-7.293-16.258-16.258v-79.37c0-9.792-7.966-17.758-17.758-17.758
				h-22.677c-9.792,0-17.758,7.966-17.758,17.758v79.37c0,8.965-7.293,16.258-16.258,16.258h-22.678
				c-8.965,0-16.258-7.293-16.258-16.258V243.78c0-8.965,7.293-16.258,16.258-16.258h22.678c9.792,0,17.758-7.966,17.758-17.758
				v-22.677c0-8.965,7.293-16.258,16.258-16.258h22.677c9.792,0,17.758-7.966,17.758-17.758v-22.677
				c0-8.965,7.293-16.258,16.258-16.258h22.678c9.792,0,17.758-7.966,17.758-17.758V73.7c0-9.792-7.966-17.758-17.758-17.758
				h-22.678c-8.965,0-16.258-7.293-16.258-16.258V17.008c0-8.964,7.293-16.258,16.258-16.258h22.678
				c8.964,0,16.258,7.293,16.258,16.258v22.677c0,9.792,7.966,17.758,17.758,17.758h22.677c8.965,0,16.258,7.293,16.258,16.258
				v22.677c0,9.792,7.966,17.758,17.758,17.758h136.063c9.792,0,17.758-7.966,17.758-17.758V73.7
				c0-8.964,7.293-16.258,16.258-16.258h22.678c9.792,0,17.758-7.966,17.758-17.758V17.008c0-8.964,7.293-16.258,16.258-16.258
				h22.677c8.965,0,16.258,7.293,16.258,16.258v22.677c0,8.964-7.293,16.258-16.258,16.258h-22.677
				c-9.792,0-17.758,7.966-17.758,17.758v22.677c0,9.792,7.966,17.758,17.758,17.758h22.677c8.965,0,16.258,7.293,16.258,16.258
				v22.677c0,9.792,7.966,17.758,17.758,17.758h22.678c8.964,0,16.258,7.293,16.258,16.258v22.677
				c0,9.792,7.966,17.758,17.758,17.758h22.677c8.965,0,16.258,7.293,16.258,16.258v136.063c0,8.965-7.293,16.258-16.258,16.258
				H-207.243z M-365.983,160.824c-33.237,0-60.277,27.041-60.277,60.278c0,33.237,27.041,60.277,60.277,60.277
				s60.277-27.041,60.277-60.277C-305.706,187.865-332.747,160.824-365.983,160.824z M-592.755,160.824
				c-33.238,0-60.278,27.041-60.278,60.278c0,33.237,27.041,60.277,60.278,60.277c33.237,0,60.277-27.041,60.277-60.277
				C-532.478,187.865-559.518,160.824-592.755,160.824z"/>
			<path fill="#A09A97" d="M-297.952,1.5c8.551,0,15.508,6.957,15.508,15.508v22.677c0,8.551-6.957,15.508-15.508,15.508h-22.677
				c-10.205,0-18.508,8.303-18.508,18.508v22.677c0,10.205,8.303,18.508,18.508,18.508h22.677c8.551,0,15.508,6.957,15.508,15.508
				v22.677c0,10.205,8.303,18.508,18.508,18.508h22.678c8.551,0,15.508,6.957,15.508,15.508v22.677
				c0,10.205,8.303,18.508,18.508,18.508h22.677c8.551,0,15.508,6.957,15.508,15.508v136.063c0,8.551-6.957,15.508-15.508,15.508
				h-22.677c-8.551,0-15.508-6.957-15.508-15.508v-79.37c0-10.206-8.303-18.508-18.508-18.508h-22.678
				c-10.205,0-18.508,8.303-18.508,18.508v79.37c0,8.551-6.957,15.508-15.508,15.508h-22.677c-8.551,0-15.508-6.957-15.508-15.508
				v-22.677c0-10.205-8.303-18.508-18.508-18.508h-249.449c-10.205,0-18.508,8.303-18.508,18.508v22.677
				c0,8.551-6.957,15.508-15.508,15.508h-22.678c-8.551,0-15.508-6.957-15.508-15.508v-79.37c0-10.206-8.303-18.508-18.508-18.508
				h-22.677c-10.205,0-18.508,8.303-18.508,18.508v79.37c0,8.551-6.957,15.508-15.508,15.508h-22.678
				c-8.551,0-15.508-6.957-15.508-15.508V243.78c0-8.551,6.957-15.508,15.508-15.508h22.678c10.205,0,18.508-8.303,18.508-18.508
				v-22.677c0-8.551,6.957-15.508,15.508-15.508h22.677c10.205,0,18.508-8.303,18.508-18.508v-22.677
				c0-8.551,6.957-15.508,15.508-15.508h22.678c10.205,0,18.508-8.303,18.508-18.508V73.7c0-10.205-8.303-18.508-18.508-18.508
				h-22.678c-8.551,0-15.508-6.957-15.508-15.508V17.008c0-8.551,6.957-15.508,15.508-15.508h22.678
				c8.551,0,15.508,6.957,15.508,15.508v22.677c0,10.205,8.303,18.508,18.508,18.508h22.677c8.551,0,15.508,6.957,15.508,15.508
				v22.677c0,10.205,8.303,18.508,18.508,18.508h136.063c10.205,0,18.508-8.303,18.508-18.508V73.7
				c0-8.551,6.957-15.508,15.508-15.508h22.678c10.205,0,18.508-8.303,18.508-18.508V17.008c0-8.551,6.957-15.508,15.508-15.508
				H-297.952 M-365.983,282.13c33.65,0,61.027-27.377,61.027-61.027c0-33.651-27.377-61.028-61.027-61.028
				s-61.027,27.377-61.027,61.028C-427.011,254.753-399.634,282.13-365.983,282.13 M-592.755,282.13
				c33.65,0,61.027-27.377,61.027-61.027c0-33.651-27.377-61.028-61.027-61.028c-33.651,0-61.028,27.377-61.028,61.028
				C-653.783,254.753-626.406,282.13-592.755,282.13 M-297.952,0c-7.559,0-15.118,0-22.677,0c-9.394,0-17.008,7.615-17.008,17.008
				c0,7.559,0,15.118,0,22.677c0,9.393-7.615,17.008-17.008,17.008c-7.56,0-15.118,0-22.678,0c-9.393,0-17.008,7.615-17.008,17.008
				c0,7.559,0,15.118,0,22.677c0,9.393-7.614,17.008-17.008,17.008c-45.354,0-90.709,0-136.063,0
				c-9.393,0-17.008-7.615-17.008-17.008c0-7.559,0-15.118,0-22.677c0-9.393-7.614-17.008-17.008-17.008c-7.559,0-15.118,0-22.677,0
				c-9.394,0-17.008-7.615-17.008-17.008c0-7.559,0-15.118,0-22.677c0-9.393-7.615-17.008-17.008-17.008c-7.56,0-15.118,0-22.678,0
				c-9.393,0-17.008,7.615-17.008,17.008c0,7.559,0,15.118,0,22.677c0,9.393,7.615,17.008,17.008,17.008c7.56,0,15.118,0,22.678,0
				c9.393,0,17.008,7.615,17.008,17.008c0,7.559,0,15.118,0,22.677c0,9.393-7.615,17.008-17.008,17.008c-7.56,0-15.118,0-22.678,0
				c-9.393,0-17.008,7.615-17.008,17.008c0,7.559,0,15.118,0,22.677c0,9.394-7.614,17.008-17.008,17.008c-7.559,0-15.118,0-22.677,0
				c-9.394,0-17.008,7.615-17.008,17.008c0,7.559,0,15.118,0,22.677c0,9.394-7.615,17.008-17.008,17.008c-7.56,0-15.118,0-22.678,0
				c-9.393,0-17.008,7.615-17.008,17.008c0,45.354,0,90.708,0,136.063c0,9.393,7.615,17.008,17.008,17.008c7.56,0,15.118,0,22.678,0
				c9.393,0,17.008-7.615,17.008-17.008c0-26.457,0-52.914,0-79.37c0-9.394,7.614-17.008,17.008-17.008c7.559,0,15.118,0,22.677,0
				c9.394,0,17.008,7.615,17.008,17.008c0,26.457,0,52.913,0,79.37c0,9.393,7.615,17.008,17.008,17.008c7.56,0,15.118,0,22.678,0
				c9.393,0,17.008-7.615,17.008-17.008c0-7.559,0-15.118,0-22.677c0-9.394,7.614-17.008,17.008-17.008
				c83.149,0,166.299,0,249.449,0c9.393,0,17.008,7.614,17.008,17.008c0,7.559,0,15.118,0,22.677
				c0,9.393,7.614,17.008,17.008,17.008c7.559,0,15.118,0,22.677,0c9.394,0,17.008-7.615,17.008-17.008c0-26.457,0-52.914,0-79.37
				c0-9.394,7.615-17.008,17.008-17.008c7.56,0,15.118,0,22.678,0c9.393,0,17.008,7.615,17.008,17.008c0,26.457,0,52.913,0,79.37
				c0,9.393,7.614,17.008,17.008,17.008c7.559,0,15.118,0,22.677,0c9.394,0,17.008-7.615,17.008-17.008c0-45.354,0-90.709,0-136.063
				c0-9.394-7.614-17.008-17.008-17.008c-7.559,0-15.118,0-22.677,0c-9.394,0-17.008-7.614-17.008-17.008c0-7.559,0-15.118,0-22.677
				c0-9.394-7.615-17.008-17.008-17.008c-7.56,0-15.118,0-22.678,0c-9.393,0-17.008-7.614-17.008-17.008c0-7.559,0-15.118,0-22.677
				c0-9.394-7.614-17.008-17.008-17.008c-7.559,0-15.118,0-22.677,0c-9.394,0-17.008-7.615-17.008-17.008c0-7.559,0-15.118,0-22.677
				c0-9.393,7.614-17.008,17.008-17.008c7.559,0,15.118,0,22.677,0c9.394,0,17.008-7.615,17.008-17.008c0-7.559,0-15.118,0-22.677
				C-280.944,7.615-288.559,0-297.952,0L-297.952,0z M-365.983,280.63c-32.876,0-59.527-26.651-59.527-59.527
				c0-32.876,26.651-59.528,59.527-59.528s59.527,26.651,59.527,59.528C-306.456,253.978-333.107,280.63-365.983,280.63
				L-365.983,280.63z M-592.755,280.63c-32.877,0-59.528-26.651-59.528-59.527c0-32.876,26.651-59.528,59.528-59.528
				c32.876,0,59.527,26.651,59.527,59.528C-533.228,253.978-559.879,280.63-592.755,280.63L-592.755,280.63z"/>
		</g>
	</g>
</g>
<g id="Eyebrows">
	<g>
		<g>
			<path fill="#282828" d="M-974.156,132.783c-1.287,0-2.334-1.047-2.334-2.334v-1.417c0-1.839-1.496-3.334-3.334-3.334h-65.197
				c-1.839,0-3.335,1.496-3.335,3.334v1.417c0,1.287-1.047,2.334-2.334,2.334h-36.851c-1.287,0-2.334-1.047-2.334-2.334v-8.504
				c0-1.288,1.047-2.335,2.334-2.335h15.591c1.839,0,3.334-1.496,3.334-3.334v-1.417c0-1.287,1.047-2.334,2.335-2.334h22.677
				c1.839,0,3.335-1.496,3.335-3.334v-1.417c0-1.287,1.047-2.334,2.334-2.334h51.023c1.288,0,2.335,1.047,2.335,2.334v1.417
				c0,1.839,1.496,3.334,3.334,3.334h22.677c1.287,0,2.334,1.047,2.334,2.334v1.417c0,1.839,1.496,3.334,3.335,3.334h15.59
				c1.287,0,2.334,1.047,2.334,2.335v8.504c0,1.287-1.047,2.334-2.334,2.334H-974.156z"/>
			<path fill="#282828" d="M-986.912,105.937c1.012,0,1.835,0.823,1.835,1.834v1.417c0,2.114,1.72,3.834,3.834,3.834h22.677
				c1.012,0,1.834,0.823,1.834,1.834v1.417c0,2.114,1.72,3.834,3.835,3.834h15.59c1.012,0,1.834,0.823,1.834,1.835v8.504
				c0,1.012-0.823,1.834-1.834,1.834h-36.851c-1.012,0-1.834-0.823-1.834-1.834v-1.417c0-2.114-1.72-3.834-3.834-3.834h-65.197
				c-2.115,0-3.835,1.72-3.835,3.834v1.417c0,1.012-0.823,1.834-1.834,1.834h-36.851c-1.012,0-1.834-0.823-1.834-1.834v-8.504
				c0-1.012,0.823-1.835,1.834-1.835h15.591c2.114,0,3.834-1.72,3.834-3.834v-1.417c0-1.012,0.823-1.834,1.835-1.834h22.677
				c2.115,0,3.835-1.72,3.835-3.834v-1.417c0-1.012,0.823-1.834,1.834-1.834H-986.912 M-986.912,104.937
				c-17.008,0-34.016,0-51.023,0c-1.565,0-2.834,1.269-2.834,2.834c0,0.473,0,0.945,0,1.417c0,1.565-1.269,2.834-2.835,2.834
				c-7.559,0-15.118,0-22.677,0c-1.566,0-2.835,1.269-2.835,2.834c0,0.473,0,0.945,0,1.417c0,1.565-1.269,2.834-2.834,2.834
				c-5.197,0-10.394,0-15.591,0c-1.565,0-2.834,1.269-2.834,2.835c0,2.834,0,5.669,0,8.504c0,1.565,1.269,2.834,2.834,2.834
				c12.284,0,24.567,0,36.851,0c1.565,0,2.834-1.269,2.834-2.834c0-0.473,0-0.945,0-1.417c0-1.565,1.269-2.834,2.835-2.834
				c21.732,0,43.464,0,65.197,0c1.565,0,2.834,1.269,2.834,2.834c0,0.473,0,0.945,0,1.417c0,1.565,1.269,2.834,2.834,2.834
				c12.284,0,24.567,0,36.851,0c1.565,0,2.834-1.269,2.834-2.834c0-2.835,0-5.669,0-8.504c0-1.566-1.269-2.835-2.834-2.835
				c-5.197,0-10.394,0-15.59,0c-1.566,0-2.835-1.269-2.835-2.834c0-0.473,0-0.945,0-1.417c0-1.565-1.269-2.834-2.834-2.834
				c-7.559,0-15.118,0-22.677,0c-1.565,0-2.834-1.269-2.834-2.834c0-0.473,0-0.945,0-1.417
				C-984.077,106.206-985.346,104.937-986.912,104.937L-986.912,104.937z"/>
		</g>
		<g>
			<path fill="#5B5B5A" d="M-976.282,130.657c-1.287,0-2.334-1.047-2.334-2.334v-1.417c0-1.839-1.496-3.334-3.334-3.334h-65.197
				c-1.839,0-3.335,1.496-3.335,3.334v1.417c0,1.287-1.047,2.334-2.334,2.334h-36.851c-1.287,0-2.334-1.047-2.334-2.334v-8.504
				c0-1.288,1.047-2.335,2.334-2.335h15.591c1.839,0,3.334-1.496,3.334-3.334v-1.417c0-1.287,1.047-2.334,2.335-2.334h22.677
				c1.839,0,3.335-1.496,3.335-3.334v-1.417c0-1.287,1.047-2.334,2.334-2.334h51.023c1.288,0,2.335,1.047,2.335,2.334v1.417
				c0,1.839,1.496,3.334,3.334,3.334h22.677c1.287,0,2.334,1.047,2.334,2.334v1.417c0,1.839,1.496,3.334,3.335,3.334h15.59
				c1.287,0,2.334,1.047,2.334,2.335v8.504c0,1.287-1.047,2.334-2.334,2.334H-976.282z"/>
			<path fill="#262626" d="M-989.038,103.811c1.012,0,1.835,0.823,1.835,1.834v1.417c0,2.114,1.72,3.834,3.834,3.834h22.677
				c1.012,0,1.834,0.823,1.834,1.834v1.417c0,2.114,1.72,3.834,3.835,3.834h15.59c1.012,0,1.834,0.823,1.834,1.835v8.504
				c0,1.012-0.823,1.834-1.834,1.834h-36.851c-1.012,0-1.834-0.823-1.834-1.834v-1.417c0-2.114-1.72-3.834-3.834-3.834h-65.197
				c-2.115,0-3.835,1.72-3.835,3.834v1.417c0,1.012-0.823,1.834-1.834,1.834h-36.851c-1.012,0-1.834-0.823-1.834-1.834v-8.504
				c0-1.012,0.823-1.835,1.834-1.835h15.591c2.114,0,3.834-1.72,3.834-3.834v-1.417c0-1.012,0.823-1.834,1.835-1.834h22.677
				c2.115,0,3.835-1.72,3.835-3.834v-1.417c0-1.012,0.823-1.834,1.834-1.834H-989.038 M-989.038,102.811
				c-17.008,0-34.016,0-51.023,0c-1.565,0-2.834,1.269-2.834,2.834c0,0.473,0,0.945,0,1.417c0,1.565-1.269,2.834-2.835,2.834
				c-7.559,0-15.118,0-22.677,0c-1.566,0-2.835,1.269-2.835,2.834c0,0.473,0,0.945,0,1.417c0,1.565-1.269,2.834-2.834,2.834
				c-5.197,0-10.394,0-15.591,0c-1.565,0-2.834,1.269-2.834,2.835c0,2.834,0,5.669,0,8.504c0,1.565,1.269,2.834,2.834,2.834
				c12.284,0,24.567,0,36.851,0c1.565,0,2.834-1.269,2.834-2.834c0-0.473,0-0.945,0-1.417c0-1.565,1.269-2.834,2.835-2.834
				c21.732,0,43.464,0,65.197,0c1.565,0,2.834,1.269,2.834,2.834c0,0.473,0,0.945,0,1.417c0,1.565,1.269,2.834,2.834,2.834
				c12.284,0,24.567,0,36.851,0c1.565,0,2.834-1.269,2.834-2.834c0-2.835,0-5.669,0-8.504c0-1.566-1.269-2.835-2.834-2.835
				c-5.197,0-10.394,0-15.59,0c-1.566,0-2.835-1.269-2.835-2.834c0-0.473,0-0.945,0-1.417c0-1.565-1.269-2.834-2.834-2.834
				c-7.559,0-15.118,0-22.677,0c-1.565,0-2.834-1.269-2.834-2.834c0-0.473,0-0.945,0-1.417
				C-986.203,104.08-987.472,102.811-989.038,102.811L-989.038,102.811z"/>
		</g>
	</g>
	<g>
		<g>
			<path fill="#282828" d="M-1200.928,132.783c-1.287,0-2.334-1.047-2.334-2.334v-1.417c0-1.839-1.496-3.334-3.335-3.334h-65.197
				c-1.839,0-3.334,1.496-3.334,3.334v1.417c0,1.287-1.047,2.334-2.334,2.334h-36.851c-1.287,0-2.334-1.047-2.334-2.334v-8.504
				c0-1.288,1.047-2.335,2.334-2.335h15.59c1.839,0,3.335-1.496,3.335-3.334v-1.417c0-1.287,1.047-2.334,2.334-2.334h22.677
				c1.839,0,3.334-1.496,3.334-3.334v-1.417c0-1.287,1.047-2.334,2.335-2.334h51.023c1.287,0,2.334,1.047,2.334,2.334v1.417
				c0,1.839,1.496,3.334,3.335,3.334h22.677c1.288,0,2.335,1.047,2.335,2.334v1.417c0,1.839,1.496,3.334,3.334,3.334h15.591
				c1.287,0,2.334,1.047,2.334,2.335v8.504c0,1.287-1.047,2.334-2.334,2.334H-1200.928z"/>
			<path fill="#282828" d="M-1213.684,105.937c1.012,0,1.834,0.823,1.834,1.834v1.417c0,2.114,1.72,3.834,3.835,3.834h22.677
				c1.012,0,1.835,0.823,1.835,1.834v1.417c0,2.114,1.72,3.834,3.834,3.834h15.591c1.012,0,1.834,0.823,1.834,1.835v8.504
				c0,1.012-0.823,1.834-1.834,1.834h-36.851c-1.012,0-1.834-0.823-1.834-1.834v-1.417c0-2.114-1.72-3.834-3.835-3.834h-65.197
				c-2.114,0-3.834,1.72-3.834,3.834v1.417c0,1.012-0.823,1.834-1.834,1.834h-36.851c-1.012,0-1.834-0.823-1.834-1.834v-8.504
				c0-1.012,0.823-1.835,1.834-1.835h15.59c2.115,0,3.835-1.72,3.835-3.834v-1.417c0-1.012,0.823-1.834,1.834-1.834h22.677
				c2.114,0,3.834-1.72,3.834-3.834v-1.417c0-1.012,0.823-1.834,1.835-1.834H-1213.684 M-1213.684,104.937
				c-17.008,0-34.016,0-51.023,0c-1.566,0-2.835,1.269-2.835,2.834c0,0.473,0,0.945,0,1.417c0,1.565-1.269,2.834-2.834,2.834
				c-7.559,0-15.118,0-22.677,0c-1.565,0-2.834,1.269-2.834,2.834c0,0.473,0,0.945,0,1.417c0,1.565-1.269,2.834-2.835,2.834
				c-5.197,0-10.394,0-15.59,0c-1.565,0-2.834,1.269-2.834,2.835c0,2.834,0,5.669,0,8.504c0,1.565,1.269,2.834,2.834,2.834
				c12.283,0,24.567,0,36.851,0c1.565,0,2.834-1.269,2.834-2.834c0-0.473,0-0.945,0-1.417c0-1.565,1.269-2.834,2.834-2.834
				c21.732,0,43.465,0,65.197,0c1.566,0,2.835,1.269,2.835,2.834c0,0.473,0,0.945,0,1.417c0,1.565,1.269,2.834,2.834,2.834
				c12.284,0,24.567,0,36.851,0c1.565,0,2.834-1.269,2.834-2.834c0-2.835,0-5.669,0-8.504c0-1.566-1.269-2.835-2.834-2.835
				c-5.197,0-10.394,0-15.591,0c-1.565,0-2.834-1.269-2.834-2.834c0-0.473,0-0.945,0-1.417c0-1.565-1.269-2.834-2.835-2.834
				c-7.559,0-15.118,0-22.677,0c-1.566,0-2.835-1.269-2.835-2.834c0-0.473,0-0.945,0-1.417
				C-1210.849,106.206-1212.118,104.937-1213.684,104.937L-1213.684,104.937z"/>
		</g>
		<g>
			<path fill="#5B5B5A" d="M-1203.054,130.657c-1.287,0-2.334-1.047-2.334-2.334v-1.417c0-1.839-1.496-3.334-3.335-3.334h-65.197
				c-1.839,0-3.334,1.496-3.334,3.334v1.417c0,1.287-1.047,2.334-2.334,2.334h-36.851c-1.287,0-2.334-1.047-2.334-2.334v-8.504
				c0-1.288,1.047-2.335,2.334-2.335h15.59c1.839,0,3.335-1.496,3.335-3.334v-1.417c0-1.287,1.047-2.334,2.334-2.334h22.677
				c1.839,0,3.334-1.496,3.334-3.334v-1.417c0-1.287,1.047-2.334,2.335-2.334h51.023c1.287,0,2.334,1.047,2.334,2.334v1.417
				c0,1.839,1.496,3.334,3.335,3.334h22.677c1.288,0,2.335,1.047,2.335,2.334v1.417c0,1.839,1.496,3.334,3.334,3.334h15.591
				c1.287,0,2.334,1.047,2.334,2.335v8.504c0,1.287-1.047,2.334-2.334,2.334H-1203.054z"/>
			<path fill="#262626" d="M-1215.81,103.811c1.012,0,1.834,0.823,1.834,1.834v1.417c0,2.114,1.72,3.834,3.835,3.834h22.677
				c1.012,0,1.835,0.823,1.835,1.834v1.417c0,2.114,1.72,3.834,3.834,3.834h15.591c1.012,0,1.834,0.823,1.834,1.835v8.504
				c0,1.012-0.823,1.834-1.834,1.834h-36.851c-1.012,0-1.834-0.823-1.834-1.834v-1.417c0-2.114-1.72-3.834-3.835-3.834h-65.197
				c-2.114,0-3.834,1.72-3.834,3.834v1.417c0,1.012-0.823,1.834-1.834,1.834h-36.851c-1.012,0-1.834-0.823-1.834-1.834v-8.504
				c0-1.012,0.823-1.835,1.834-1.835h15.59c2.115,0,3.835-1.72,3.835-3.834v-1.417c0-1.012,0.823-1.834,1.834-1.834h22.677
				c2.114,0,3.834-1.72,3.834-3.834v-1.417c0-1.012,0.823-1.834,1.835-1.834H-1215.81 M-1215.81,102.811
				c-17.008,0-34.016,0-51.023,0c-1.566,0-2.835,1.269-2.835,2.834c0,0.473,0,0.945,0,1.417c0,1.565-1.269,2.834-2.834,2.834
				c-7.559,0-15.118,0-22.677,0c-1.565,0-2.834,1.269-2.834,2.834c0,0.473,0,0.945,0,1.417c0,1.565-1.269,2.834-2.835,2.834
				c-5.197,0-10.394,0-15.59,0c-1.565,0-2.834,1.269-2.834,2.835c0,2.834,0,5.669,0,8.504c0,1.565,1.269,2.834,2.834,2.834
				c12.283,0,24.567,0,36.851,0c1.565,0,2.834-1.269,2.834-2.834c0-0.473,0-0.945,0-1.417c0-1.565,1.269-2.834,2.834-2.834
				c21.732,0,43.465,0,65.197,0c1.566,0,2.835,1.269,2.835,2.834c0,0.473,0,0.945,0,1.417c0,1.565,1.269,2.834,2.834,2.834
				c12.284,0,24.567,0,36.851,0c1.565,0,2.834-1.269,2.834-2.834c0-2.835,0-5.669,0-8.504c0-1.566-1.269-2.835-2.834-2.835
				c-5.197,0-10.394,0-15.591,0c-1.565,0-2.834-1.269-2.834-2.834c0-0.473,0-0.945,0-1.417c0-1.565-1.269-2.834-2.835-2.834
				c-7.559,0-15.118,0-22.677,0c-1.566,0-2.835-1.269-2.835-2.834c0-0.473,0-0.945,0-1.417
				C-1212.975,104.08-1214.244,102.811-1215.81,102.811L-1215.81,102.811z"/>
		</g>
	</g>
</g>
<g id="Screws">
	<circle fill="#A09188" stroke="#7F7B79" stroke-miterlimit="10" cx="-1127.936" cy="317.535" r="8.504"/>
	<polygon fill="#54504E" points="-1125.89,321.078 -1123.844,317.535 -1125.89,313.991 -1129.981,313.991 -1132.027,317.535 
		-1129.981,321.078 	"/>
	<circle fill="#A09188" stroke="#7F7B79" stroke-miterlimit="10" cx="-878.487" cy="249.504" r="8.504"/>
	<polygon fill="#54504E" points="-876.441,253.047 -874.395,249.504 -876.441,245.96 -880.532,245.96 -882.578,249.504 
		-880.532,253.047 	"/>
	<circle fill="#A09188" stroke="#7F7B79" stroke-miterlimit="10" cx="-1377.384" cy="249.504" r="8.504"/>
	<polygon fill="#54504E" points="-1375.339,253.047 -1373.293,249.504 -1375.339,245.96 -1379.43,245.96 -1381.476,249.504 
		-1379.43,253.047 	"/>
	<circle fill="#A09188" stroke="#7F7B79" stroke-miterlimit="10" cx="-1241.321" cy="430.921" r="6.378"/>
	<polygon fill="#54504E" points="-1242.958,428.086 -1244.595,430.921 -1242.958,433.756 -1239.685,433.756 -1238.048,430.921 
		-1239.685,428.086 	"/>
	<circle fill="#A09188" stroke="#7F7B79" stroke-miterlimit="10" cx="-107.874" cy="28.346" r="6.378"/>
	<polygon fill="#54504E" points="-109.51,25.512 -111.147,28.346 -109.51,31.181 -106.237,31.181 -104.601,28.346 -106.237,25.512 	
		"/>
	<circle fill="#A09188" stroke="#7F7B79" stroke-miterlimit="10" cx="-1014.55" cy="430.921" r="6.378"/>
	<polygon fill="#54504E" points="-1016.187,428.086 -1017.823,430.921 -1016.187,433.756 -1012.913,433.756 -1011.276,430.921 
		-1012.913,428.086 	"/>
	<circle fill="#A09188" stroke="#7F7B79" stroke-miterlimit="10" cx="-1014.55" cy="113.441" r="6.378"/>
	<polygon fill="#54504E" points="-1016.187,110.606 -1017.823,113.441 -1016.187,116.275 -1012.913,116.275 -1011.276,113.441 
		-1012.913,110.606 	"/>
	<circle fill="#A09188" stroke="#7F7B79" stroke-miterlimit="10" cx="-1241.321" cy="113.441" r="6.378"/>
	<polygon fill="#54504E" points="-1242.958,110.606 -1244.595,113.441 -1242.958,116.275 -1239.685,116.275 -1238.048,113.441 
		-1239.685,110.606 	"/>
	<g>
		<g>
			<path fill="#282828" d="M118.346,29.972c-1.287,0-2.334-1.047-2.334-2.334V26.22c0-1.839-1.496-3.334-3.335-3.334H47.48
				c-1.839,0-3.334,1.496-3.334,3.334v1.417c0,1.287-1.047,2.334-2.334,2.334H4.96c-1.287,0-2.334-1.047-2.334-2.334v-8.504
				c0-1.288,1.047-2.335,2.334-2.335h15.59c1.839,0,3.335-1.496,3.335-3.334v-1.417c0-1.287,1.047-2.334,2.334-2.334h22.677
				c1.839,0,3.334-1.496,3.334-3.334V4.961c0-1.287,1.047-2.334,2.335-2.334h51.023c1.287,0,2.334,1.047,2.334,2.334v1.417
				c0,1.839,1.496,3.334,3.335,3.334h22.677c1.288,0,2.335,1.047,2.335,2.334v1.417c0,1.839,1.496,3.334,3.334,3.334h15.591
				c1.287,0,2.334,1.047,2.334,2.335v8.504c0,1.287-1.047,2.334-2.334,2.334H118.346z"/>
			<path fill="#282828" d="M105.59,3.126c1.012,0,1.834,0.823,1.834,1.834v1.417c0,2.114,1.72,3.834,3.835,3.834h22.677
				c1.012,0,1.835,0.823,1.835,1.834v1.417c0,2.114,1.72,3.834,3.834,3.834h15.591c1.011,0,1.834,0.823,1.834,1.835v8.504
				c0,1.012-0.823,1.834-1.834,1.834h-36.851c-1.011,0-1.834-0.823-1.834-1.834V26.22c0-2.114-1.72-3.834-3.835-3.834H47.48
				c-2.114,0-3.834,1.72-3.834,3.834v1.417c0,1.012-0.823,1.834-1.834,1.834H4.96c-1.011,0-1.834-0.823-1.834-1.834v-8.504
				c0-1.012,0.823-1.835,1.834-1.835h15.59c2.115,0,3.835-1.72,3.835-3.834v-1.417c0-1.012,0.823-1.834,1.834-1.834h22.677
				c2.114,0,3.834-1.72,3.834-3.834V4.961c0-1.012,0.823-1.834,1.835-1.834H105.59 M105.59,2.126c-17.008,0-34.016,0-51.023,0
				c-1.566,0-2.835,1.269-2.835,2.834c0,0.473,0,0.945,0,1.417c0,1.565-1.269,2.834-2.834,2.834c-7.559,0-15.118,0-22.677,0
				c-1.565,0-2.834,1.269-2.834,2.834c0,0.473,0,0.945,0,1.417c0,1.565-1.269,2.834-2.835,2.834c-5.197,0-10.394,0-15.59,0
				c-1.565,0-2.834,1.269-2.834,2.835c0,2.834,0,5.669,0,8.504c0,1.565,1.269,2.834,2.834,2.834c12.283,0,24.567,0,36.851,0
				c1.565,0,2.834-1.269,2.834-2.834c0-0.473,0-0.945,0-1.417c0-1.565,1.269-2.834,2.834-2.834c21.732,0,43.465,0,65.197,0
				c1.566,0,2.835,1.269,2.835,2.834c0,0.473,0,0.945,0,1.417c0,1.565,1.269,2.834,2.834,2.834c12.284,0,24.567,0,36.851,0
				c1.565,0,2.834-1.269,2.834-2.834c0-2.835,0-5.669,0-8.504c0-1.566-1.269-2.835-2.834-2.835c-5.197,0-10.394,0-15.591,0
				c-1.565,0-2.834-1.269-2.834-2.834c0-0.473,0-0.945,0-1.417c0-1.565-1.269-2.834-2.835-2.834c-7.559,0-15.118,0-22.677,0
				c-1.566,0-2.835-1.269-2.835-2.834c0-0.473,0-0.945,0-1.417C108.425,3.395,107.156,2.126,105.59,2.126L105.59,2.126z"/>
		</g>
		<g>
			<path fill="#5B5B5A" d="M116.22,27.846c-1.287,0-2.334-1.047-2.334-2.334v-1.417c0-1.839-1.496-3.334-3.335-3.334H45.354
				c-1.839,0-3.334,1.496-3.334,3.334v1.417c0,1.287-1.047,2.334-2.334,2.334H2.834c-1.287,0-2.334-1.047-2.334-2.334v-8.504
				c0-1.288,1.047-2.335,2.334-2.335h15.59c1.839,0,3.335-1.496,3.335-3.334V9.921c0-1.287,1.047-2.334,2.334-2.334h22.677
				c1.839,0,3.334-1.496,3.334-3.334V2.835c0-1.287,1.047-2.334,2.335-2.334h51.023c1.287,0,2.334,1.047,2.334,2.334v1.417
				c0,1.839,1.496,3.334,3.335,3.334h22.677c1.288,0,2.335,1.047,2.335,2.334v1.417c0,1.839,1.496,3.334,3.334,3.334h15.591
				c1.287,0,2.334,1.047,2.334,2.335v8.504c0,1.287-1.047,2.334-2.334,2.334H116.22z"/>
			<path fill="#262626" d="M103.464,1c1.012,0,1.834,0.823,1.834,1.834v1.417c0,2.114,1.72,3.834,3.835,3.834h22.677
				c1.012,0,1.835,0.823,1.835,1.834v1.417c0,2.114,1.72,3.834,3.834,3.834h15.591c1.011,0,1.834,0.823,1.834,1.835v8.504
				c0,1.012-0.823,1.834-1.834,1.834H116.22c-1.011,0-1.834-0.823-1.834-1.834v-1.417c0-2.114-1.72-3.834-3.835-3.834H45.354
				c-2.114,0-3.834,1.72-3.834,3.834v1.417c0,1.012-0.823,1.834-1.834,1.834H2.834C1.823,27.346,1,26.524,1,25.512v-8.504
				c0-1.012,0.823-1.835,1.834-1.835h15.59c2.115,0,3.835-1.72,3.835-3.834V9.921c0-1.012,0.823-1.834,1.834-1.834h22.677
				c2.114,0,3.834-1.72,3.834-3.834V2.835C50.606,1.823,51.429,1,52.441,1H103.464 M103.464,0C86.457,0,69.449,0,52.441,0
				c-1.566,0-2.835,1.269-2.835,2.834c0,0.473,0,0.945,0,1.417c0,1.565-1.269,2.834-2.834,2.834c-7.559,0-15.118,0-22.677,0
				c-1.565,0-2.834,1.269-2.834,2.834c0,0.473,0,0.945,0,1.417c0,1.565-1.269,2.834-2.835,2.834c-5.197,0-10.394,0-15.59,0
				C1.269,14.173,0,15.442,0,17.008c0,2.834,0,5.669,0,8.504c0,1.565,1.269,2.834,2.834,2.834c12.283,0,24.567,0,36.851,0
				c1.565,0,2.834-1.269,2.834-2.834c0-0.473,0-0.945,0-1.417c0-1.565,1.269-2.834,2.834-2.834c21.732,0,43.465,0,65.197,0
				c1.566,0,2.835,1.269,2.835,2.834c0,0.473,0,0.945,0,1.417c0,1.565,1.269,2.834,2.834,2.834c12.284,0,24.567,0,36.851,0
				c1.565,0,2.834-1.269,2.834-2.834c0-2.835,0-5.669,0-8.504c0-1.566-1.269-2.835-2.834-2.835c-5.197,0-10.394,0-15.591,0
				c-1.565,0-2.834-1.269-2.834-2.834c0-0.473,0-0.945,0-1.417c0-1.565-1.269-2.834-2.835-2.834c-7.559,0-15.118,0-22.677,0
				c-1.566,0-2.835-1.269-2.835-2.834c0-0.473,0-0.945,0-1.417C106.299,1.269,105.03,0,103.464,0L103.464,0z"/>
		</g>
	</g>
	<circle fill="#A09188" stroke="#7F7B79" stroke-miterlimit="10" cx="77.953" cy="10.63" r="6.378"/>
	<polygon fill="#54504E" points="76.316,7.795 74.679,10.63 76.316,13.465 79.589,13.465 81.226,10.63 79.589,7.795 	"/>
	<circle fill="#A09188" stroke="#7F7B79" stroke-miterlimit="10" cx="-479.37" cy="311.811" r="8.504"/>
	<polygon fill="#54504E" points="-477.324,315.354 -475.278,311.811 -477.324,308.267 -481.416,308.267 -483.461,311.811 
		-481.416,315.354 	"/>
	<circle fill="#A09188" stroke="#7F7B79" stroke-miterlimit="10" cx="-229.921" cy="243.78" r="8.504"/>
	<polygon fill="#54504E" points="-227.875,247.323 -225.829,243.78 -227.875,240.236 -231.966,240.236 -234.012,243.78 
		-231.966,247.323 	"/>
	<circle fill="#A09188" stroke="#7F7B79" stroke-miterlimit="10" cx="-728.819" cy="243.78" r="8.504"/>
	<polygon fill="#54504E" points="-726.773,247.323 -724.727,243.78 -726.773,240.236 -730.864,240.236 -732.91,243.78 
		-730.864,247.323 	"/>
</g>
</svg>
