<?xml version="1.0" encoding="utf-8"?>
<!-- Generator: Adobe Illustrator 15.1.0, SVG Export Plug-In . SVG Version: 6.00 Build 0)  -->
<!DOCTYPE svg PUBLIC "-//W3C//DTD SVG 1.1//EN" "http://www.w3.org/Graphics/SVG/1.1/DTD/svg11.dtd">
<svg version="1.1" xmlns="http://www.w3.org/2000/svg" xmlns:xlink="http://www.w3.org/1999/xlink" x="0px" y="0px"
	 width="626.457px" height="399.685px" viewBox="0 0 626.457 399.685" enable-background="new 0 0 626.457 399.685"
	 xml:space="preserve">
<g id="Skin">
	<g>
		<g>
			<path fill="#A09A97" d="M-458.645,461.352c-8.964,0-16.258-7.293-16.258-16.258v-22.677c0-8.964,7.293-16.258,16.258-16.258
				h79.37c8.964,0,16.258,7.293,16.258,16.258v22.677c0,8.964-7.293,16.258-16.258,16.258H-458.645z"/>
			<path fill="#A09A97" d="M-379.275,406.909c8.551,0,15.508,6.957,15.508,15.508v22.677c0,8.551-6.957,15.508-15.508,15.508h-79.37
				c-8.551,0-15.508-6.957-15.508-15.508v-22.677c0-8.551,6.957-15.508,15.508-15.508H-379.275 M-379.275,405.409
				c-26.457,0-52.913,0-79.37,0c-9.393,0-17.008,7.615-17.008,17.008c0,7.559,0,15.118,0,22.677c0,9.393,7.615,17.008,17.008,17.008
				c26.457,0,52.914,0,79.37,0c9.394,0,17.008-7.615,17.008-17.008c0-7.559,0-15.118,0-22.677
				C-362.267,413.024-369.881,405.409-379.275,405.409L-379.275,405.409z"/>
		</g>
		<g>
			<path fill="#D3D1CB" d="M-461.479,458.517c-8.964,0-16.258-7.293-16.258-16.258v-22.677c0-8.964,7.293-16.258,16.258-16.258
				h79.37c8.964,0,16.258,7.293,16.258,16.258v22.677c0,8.964-7.293,16.258-16.258,16.258H-461.479z"/>
			<path fill="#A09A97" d="M-382.109,404.074c8.551,0,15.508,6.957,15.508,15.508v22.677c0,8.551-6.957,15.508-15.508,15.508h-79.37
				c-8.551,0-15.508-6.957-15.508-15.508v-22.677c0-8.551,6.957-15.508,15.508-15.508H-382.109 M-382.109,402.574
				c-26.457,0-52.913,0-79.37,0c-9.393,0-17.008,7.615-17.008,17.008c0,7.559,0,15.118,0,22.677c0,9.393,7.615,17.008,17.008,17.008
				c26.457,0,52.914,0,79.37,0c9.394,0,17.008-7.615,17.008-17.008c0-7.559,0-15.118,0-22.677
				C-365.102,410.189-372.716,402.574-382.109,402.574L-382.109,402.574z"/>
		</g>
	</g>
	<g>
		<g>
			<path fill="#A09A97" d="M674.803,58.778c-8.964,0-16.258-7.293-16.258-16.258V19.843c0-8.964,7.293-16.258,16.258-16.258h79.37
				c8.964,0,16.258,7.293,16.258,16.258V42.52c0,8.964-7.293,16.258-16.258,16.258H674.803z"/>
			<path fill="#A09A97" d="M754.173,4.335c8.551,0,15.508,6.957,15.508,15.508V42.52c0,8.551-6.957,15.508-15.508,15.508h-79.37
				c-8.551,0-15.508-6.957-15.508-15.508V19.843c0-8.551,6.957-15.508,15.508-15.508H754.173 M754.173,2.835
				c-26.457,0-52.913,0-79.37,0c-9.393,0-17.008,7.615-17.008,17.008c0,7.559,0,15.118,0,22.677c0,9.393,7.615,17.008,17.008,17.008
				c26.457,0,52.914,0,79.37,0c9.394,0,17.008-7.615,17.008-17.008c0-7.559,0-15.118,0-22.677
				C771.181,10.449,763.566,2.835,754.173,2.835L754.173,2.835z"/>
		</g>
		<g>
			<path fill="#D3D1CB" d="M671.968,55.943c-8.964,0-16.258-7.293-16.258-16.258V17.008c0-8.965,7.293-16.258,16.258-16.258h79.37
				c8.964,0,16.258,7.293,16.258,16.258v22.677c0,8.964-7.293,16.258-16.258,16.258H671.968z"/>
			<path fill="#A09A97" d="M751.338,1.5c8.551,0,15.508,6.957,15.508,15.508v22.677c0,8.551-6.957,15.508-15.508,15.508h-79.37
				c-8.551,0-15.508-6.957-15.508-15.508V17.008c0-8.551,6.957-15.508,15.508-15.508H751.338 M751.338,0c-26.457,0-52.913,0-79.37,0
				c-9.393,0-17.008,7.615-17.008,17.008c0,7.559,0,15.118,0,22.677c0,9.393,7.615,17.008,17.008,17.008c26.457,0,52.914,0,79.37,0
				c9.394,0,17.008-7.615,17.008-17.008c0-7.559,0-15.118,0-22.677C768.346,7.615,760.732,0,751.338,0L751.338,0z"/>
		</g>
	</g>
	<g>
		<g>
			<path fill="#A09A97" d="M-288.566,461.352c-8.964,0-16.258-7.293-16.258-16.258v-22.677c0-8.964,7.293-16.258,16.258-16.258
				h79.37c8.964,0,16.258,7.293,16.258,16.258v22.677c0,8.964-7.293,16.258-16.258,16.258H-288.566z"/>
			<path fill="#A09A97" d="M-209.196,406.909c8.551,0,15.508,6.957,15.508,15.508v22.677c0,8.551-6.957,15.508-15.508,15.508h-79.37
				c-8.551,0-15.508-6.957-15.508-15.508v-22.677c0-8.551,6.957-15.508,15.508-15.508H-209.196 M-209.196,405.409
				c-26.457,0-52.914,0-79.37,0c-9.394,0-17.008,7.615-17.008,17.008c0,7.559,0,15.118,0,22.677c0,9.393,7.614,17.008,17.008,17.008
				c26.457,0,52.913,0,79.37,0c9.393,0,17.008-7.615,17.008-17.008c0-7.559,0-15.118,0-22.677
				C-192.188,413.024-199.803,405.409-209.196,405.409L-209.196,405.409z"/>
		</g>
		<g>
			<path fill="#D3D1CB" d="M-291.4,458.517c-8.964,0-16.258-7.293-16.258-16.258v-22.677c0-8.964,7.293-16.258,16.258-16.258h79.37
				c8.964,0,16.258,7.293,16.258,16.258v22.677c0,8.964-7.293,16.258-16.258,16.258H-291.4z"/>
			<path fill="#A09A97" d="M-212.03,404.074c8.551,0,15.508,6.957,15.508,15.508v22.677c0,8.551-6.957,15.508-15.508,15.508h-79.37
				c-8.551,0-15.508-6.957-15.508-15.508v-22.677c0-8.551,6.957-15.508,15.508-15.508H-212.03 M-212.03,402.574
				c-26.457,0-52.914,0-79.37,0c-9.394,0-17.008,7.615-17.008,17.008c0,7.559,0,15.118,0,22.677c0,9.393,7.614,17.008,17.008,17.008
				c26.457,0,52.913,0,79.37,0c9.393,0,17.008-7.615,17.008-17.008c0-7.559,0-15.118,0-22.677
				C-195.022,410.189-202.637,402.574-212.03,402.574L-212.03,402.574z"/>
		</g>
	</g>
	<g>
		<g>
			<path fill="#A09A97" d="M-61.794,404.659c-8.964,0-16.258-7.293-16.258-16.258v-79.37c0-9.792-7.966-17.758-17.758-17.758
				h-22.677c-9.792,0-17.758,7.966-17.758,17.758v79.37c0,8.965-7.293,16.258-16.258,16.258h-22.677
				c-8.964,0-16.258-7.293-16.258-16.258v-22.677c0-9.792-7.966-17.758-17.758-17.758h-249.449c-9.792,0-17.758,7.966-17.758,17.758
				v22.677c0,8.965-7.293,16.258-16.258,16.258h-22.677c-8.965,0-16.258-7.293-16.258-16.258v-79.37
				c0-9.792-7.966-17.758-17.758-17.758h-22.677c-9.792,0-17.758,7.966-17.758,17.758v79.37c0,8.965-7.293,16.258-16.258,16.258
				h-22.677c-8.965,0-16.258-7.293-16.258-16.258V252.338c0-8.965,7.293-16.258,16.258-16.258h22.677
				c9.792,0,17.758-7.966,17.758-17.758v-22.677c0-8.965,7.293-16.258,16.258-16.258h22.677c9.792,0,17.758-7.966,17.758-17.758
				v-22.677c0-8.965,7.293-16.258,16.258-16.258h22.677c9.792,0,17.758-7.966,17.758-17.758V82.259
				c0-9.792-7.966-17.758-17.758-17.758h-22.677c-8.965,0-16.258-7.293-16.258-16.258V25.566c0-8.964,7.293-16.257,16.258-16.257
				h22.677c8.964,0,16.258,7.293,16.258,16.257v22.677c0,9.792,7.966,17.758,17.758,17.758h22.677
				c8.965,0,16.258,7.293,16.258,16.258v22.677c0,9.792,7.966,17.758,17.758,17.758h136.063c9.792,0,17.758-7.966,17.758-17.758
				V82.259c0-8.964,7.293-16.258,16.258-16.258h22.677c9.792,0,17.758-7.966,17.758-17.758V25.566
				c0-8.964,7.293-16.257,16.258-16.257h22.677c8.965,0,16.258,7.293,16.258,16.257v22.677c0,8.964-7.293,16.258-16.258,16.258
				h-22.677c-9.792,0-17.758,7.966-17.758,17.758v22.677c0,9.792,7.966,17.758,17.758,17.758h22.677
				c8.965,0,16.258,7.293,16.258,16.258v22.677c0,9.792,7.966,17.758,17.758,17.758h22.677c8.964,0,16.258,7.293,16.258,16.258
				v22.677c0,9.792,7.966,17.758,17.758,17.758h22.677c8.965,0,16.258,7.293,16.258,16.258v136.063
				c0,8.965-7.293,16.258-16.258,16.258H-61.794z M-220.535,169.383c-33.237,0-60.277,27.041-60.277,60.278
				c0,33.237,27.041,60.277,60.277,60.277c33.237,0,60.278-27.041,60.278-60.277C-160.257,196.424-187.297,169.383-220.535,169.383z
				 M-447.306,169.383c-33.237,0-60.278,27.041-60.278,60.278c0,33.237,27.041,60.277,60.278,60.277
				c33.237,0,60.277-27.041,60.277-60.277C-387.029,196.424-414.069,169.383-447.306,169.383z"/>
			<path fill="#A09A97" d="M-152.503,10.059c8.551,0,15.508,6.957,15.508,15.507v22.677c0,8.551-6.957,15.508-15.508,15.508h-22.677
				c-10.205,0-18.508,8.303-18.508,18.508v22.677c0,10.205,8.303,18.508,18.508,18.508h22.677c8.551,0,15.508,6.957,15.508,15.508
				v22.677c0,10.205,8.303,18.508,18.508,18.508h22.677c8.551,0,15.508,6.957,15.508,15.508v22.677
				c0,10.205,8.303,18.508,18.508,18.508h22.677c8.551,0,15.508,6.957,15.508,15.508v136.063c0,8.551-6.957,15.508-15.508,15.508
				h-22.677c-8.551,0-15.508-6.957-15.508-15.508v-79.37c0-10.206-8.303-18.508-18.508-18.508h-22.677
				c-10.205,0-18.508,8.303-18.508,18.508v79.37c0,8.551-6.957,15.508-15.508,15.508h-22.677c-8.551,0-15.508-6.957-15.508-15.508
				v-22.677c0-10.205-8.303-18.508-18.508-18.508h-249.449c-10.205,0-18.508,8.303-18.508,18.508v22.677
				c0,8.551-6.957,15.508-15.508,15.508h-22.677c-8.551,0-15.508-6.957-15.508-15.508v-79.37c0-10.206-8.303-18.508-18.508-18.508
				h-22.677c-10.205,0-18.508,8.303-18.508,18.508v79.37c0,8.551-6.957,15.508-15.508,15.508h-22.677
				c-8.551,0-15.508-6.957-15.508-15.508V252.338c0-8.551,6.957-15.508,15.508-15.508h22.677c10.205,0,18.508-8.303,18.508-18.508
				v-22.677c0-8.551,6.957-15.508,15.508-15.508h22.677c10.205,0,18.508-8.303,18.508-18.508v-22.677
				c0-8.551,6.957-15.508,15.508-15.508h22.677c10.205,0,18.508-8.303,18.508-18.508V82.259c0-10.205-8.303-18.508-18.508-18.508
				h-22.677c-8.551,0-15.508-6.957-15.508-15.508V25.566c0-8.551,6.957-15.507,15.508-15.507h22.677
				c8.551,0,15.508,6.957,15.508,15.507v22.677c0,10.205,8.303,18.508,18.508,18.508h22.677c8.551,0,15.508,6.957,15.508,15.508
				v22.677c0,10.205,8.303,18.508,18.508,18.508h136.063c10.205,0,18.508-8.303,18.508-18.508V82.259
				c0-8.551,6.957-15.508,15.508-15.508h22.677c10.205,0,18.508-8.303,18.508-18.508V25.566c0-8.551,6.957-15.507,15.508-15.507
				H-152.503 M-220.535,290.688c33.651,0,61.028-27.377,61.028-61.027c0-33.651-27.377-61.028-61.028-61.028
				c-33.65,0-61.027,27.377-61.027,61.028C-281.562,263.311-254.185,290.688-220.535,290.688 M-447.306,290.688
				c33.65,0,61.027-27.377,61.027-61.027c0-33.651-27.377-61.028-61.027-61.028c-33.651,0-61.028,27.377-61.028,61.028
				C-508.334,263.311-480.957,290.688-447.306,290.688 M-152.503,8.559c-7.559,0-15.118,0-22.677,0
				c-9.393,0-17.008,7.614-17.008,17.007c0,7.559,0,15.118,0,22.677c0,9.393-7.615,17.008-17.008,17.008c-7.559,0-15.118,0-22.677,0
				c-9.393,0-17.008,7.615-17.008,17.008c0,7.559,0,15.118,0,22.677c0,9.393-7.615,17.008-17.008,17.008
				c-45.354,0-90.709,0-136.063,0c-9.393,0-17.008-7.615-17.008-17.008c0-7.559,0-15.118,0-22.677
				c0-9.393-7.615-17.008-17.008-17.008c-7.559,0-15.118,0-22.677,0c-9.393,0-17.008-7.615-17.008-17.008c0-7.559,0-15.118,0-22.677
				c0-9.393-7.615-17.007-17.008-17.007c-7.559,0-15.118,0-22.677,0c-9.393,0-17.008,7.614-17.008,17.007c0,7.559,0,15.118,0,22.677
				c0,9.393,7.615,17.008,17.008,17.008c7.559,0,15.118,0,22.677,0c9.393,0,17.008,7.615,17.008,17.008c0,7.559,0,15.118,0,22.677
				c0,9.393-7.615,17.008-17.008,17.008c-7.559,0-15.118,0-22.677,0c-9.393,0-17.008,7.615-17.008,17.008c0,7.559,0,15.118,0,22.677
				c0,9.394-7.615,17.008-17.008,17.008c-7.559,0-15.118,0-22.677,0c-9.393,0-17.008,7.615-17.008,17.008c0,7.559,0,15.118,0,22.677
				c0,9.394-7.615,17.008-17.008,17.008c-7.559,0-15.118,0-22.677,0c-9.393,0-17.008,7.615-17.008,17.008
				c0,45.354,0,90.708,0,136.063c0,9.393,7.615,17.008,17.008,17.008c7.559,0,15.118,0,22.677,0c9.393,0,17.008-7.615,17.008-17.008
				c0-26.457,0-52.914,0-79.37c0-9.394,7.615-17.008,17.008-17.008c7.559,0,15.118,0,22.677,0c9.393,0,17.008,7.615,17.008,17.008
				c0,26.457,0,52.913,0,79.37c0,9.393,7.615,17.008,17.008,17.008c7.559,0,15.118,0,22.677,0c9.393,0,17.008-7.615,17.008-17.008
				c0-7.559,0-15.118,0-22.677c0-9.394,7.615-17.008,17.008-17.008c83.15,0,166.299,0,249.449,0c9.393,0,17.008,7.614,17.008,17.008
				c0,7.559,0,15.118,0,22.677c0,9.393,7.615,17.008,17.008,17.008c7.559,0,15.118,0,22.677,0c9.393,0,17.008-7.615,17.008-17.008
				c0-26.457,0-52.914,0-79.37c0-9.394,7.615-17.008,17.008-17.008c7.559,0,15.118,0,22.677,0c9.393,0,17.008,7.615,17.008,17.008
				c0,26.457,0,52.913,0,79.37c0,9.393,7.615,17.008,17.008,17.008c7.559,0,15.118,0,22.677,0c9.393,0,17.008-7.615,17.008-17.008
				c0-45.354,0-90.709,0-136.063c0-9.394-7.615-17.008-17.008-17.008c-7.559,0-15.118,0-22.677,0
				c-9.393,0-17.008-7.614-17.008-17.008c0-7.559,0-15.118,0-22.677c0-9.394-7.615-17.008-17.008-17.008c-7.559,0-15.118,0-22.677,0
				c-9.393,0-17.008-7.614-17.008-17.008c0-7.559,0-15.118,0-22.677c0-9.394-7.615-17.008-17.008-17.008c-7.559,0-15.118,0-22.677,0
				c-9.393,0-17.008-7.615-17.008-17.008c0-7.559,0-15.118,0-22.677c0-9.393,7.615-17.008,17.008-17.008c7.559,0,15.118,0,22.677,0
				c9.393,0,17.008-7.615,17.008-17.008c0-7.559,0-15.118,0-22.677C-135.495,16.173-143.11,8.559-152.503,8.559L-152.503,8.559z
				 M-220.535,289.188c-32.876,0-59.527-26.651-59.527-59.527c0-32.876,26.651-59.528,59.527-59.528
				c32.876,0,59.528,26.651,59.528,59.528C-161.007,262.537-187.658,289.188-220.535,289.188L-220.535,289.188z M-447.306,289.188
				c-32.876,0-59.528-26.651-59.528-59.527c0-32.876,26.651-59.528,59.528-59.528c32.876,0,59.527,26.651,59.527,59.528
				C-387.779,262.537-414.43,289.188-447.306,289.188L-447.306,289.188z"/>
		</g>
		<g>
			<path fill="#D3D1CB" d="M-64.629,401.824c-8.964,0-16.258-7.293-16.258-16.258v-79.37c0-9.792-7.966-17.758-17.758-17.758
				h-22.677c-9.792,0-17.758,7.966-17.758,17.758v79.37c0,8.965-7.293,16.258-16.258,16.258h-22.677
				c-8.964,0-16.258-7.293-16.258-16.258v-22.677c0-9.792-7.966-17.758-17.758-17.758h-249.449c-9.792,0-17.758,7.966-17.758,17.758
				v22.677c0,8.965-7.293,16.258-16.258,16.258h-22.677c-8.965,0-16.258-7.293-16.258-16.258v-79.37
				c0-9.792-7.966-17.758-17.758-17.758h-22.677c-9.792,0-17.758,7.966-17.758,17.758v79.37c0,8.965-7.293,16.258-16.258,16.258
				h-22.677c-8.965,0-16.258-7.293-16.258-16.258V249.504c0-8.965,7.293-16.258,16.258-16.258h22.677
				c9.792,0,17.758-7.966,17.758-17.758v-22.677c0-8.965,7.293-16.258,16.258-16.258h22.677c9.792,0,17.758-7.966,17.758-17.758
				v-22.677c0-8.965,7.293-16.258,16.258-16.258h22.677c9.792,0,17.758-7.966,17.758-17.758V79.425
				c0-9.792-7.966-17.758-17.758-17.758h-22.677c-8.965,0-16.258-7.293-16.258-16.258V22.732c0-8.964,7.293-16.258,16.258-16.258
				h22.677c8.964,0,16.258,7.293,16.258,16.258v22.677c0,9.792,7.966,17.758,17.758,17.758h22.677
				c8.965,0,16.258,7.293,16.258,16.258v22.677c0,9.792,7.966,17.758,17.758,17.758h136.063c9.792,0,17.758-7.966,17.758-17.758
				V79.425c0-8.964,7.293-16.258,16.258-16.258h22.677c9.792,0,17.758-7.966,17.758-17.758V22.732
				c0-8.964,7.293-16.258,16.258-16.258h22.677c8.965,0,16.258,7.293,16.258,16.258v22.677c0,8.964-7.293,16.258-16.258,16.258
				h-22.677c-9.792,0-17.758,7.966-17.758,17.758v22.677c0,9.792,7.966,17.758,17.758,17.758h22.677
				c8.965,0,16.258,7.293,16.258,16.258v22.677c0,9.792,7.966,17.758,17.758,17.758h22.677c8.964,0,16.258,7.293,16.258,16.258
				v22.677c0,9.792,7.966,17.758,17.758,17.758h22.677c8.965,0,16.258,7.293,16.258,16.258v136.063
				c0,8.965-7.293,16.258-16.258,16.258H-64.629z M-223.369,166.549c-33.237,0-60.277,27.041-60.277,60.278
				c0,33.237,27.041,60.277,60.277,60.277c33.237,0,60.278-27.041,60.278-60.277C-163.091,193.589-190.132,166.549-223.369,166.549z
				 M-450.141,166.549c-33.237,0-60.278,27.041-60.278,60.278c0,33.237,27.041,60.277,60.278,60.277
				c33.237,0,60.277-27.041,60.277-60.277C-389.863,193.589-416.904,166.549-450.141,166.549z"/>
			<path fill="#A09A97" d="M-155.337,7.224c8.551,0,15.508,6.957,15.508,15.508v22.677c0,8.551-6.957,15.508-15.508,15.508h-22.677
				c-10.205,0-18.508,8.303-18.508,18.508v22.677c0,10.205,8.303,18.508,18.508,18.508h22.677c8.551,0,15.508,6.957,15.508,15.508
				v22.677c0,10.205,8.303,18.508,18.508,18.508h22.677c8.551,0,15.508,6.957,15.508,15.508v22.677
				c0,10.205,8.303,18.508,18.508,18.508h22.677c8.551,0,15.508,6.957,15.508,15.508v136.063c0,8.551-6.957,15.508-15.508,15.508
				h-22.677c-8.551,0-15.508-6.957-15.508-15.508v-79.37c0-10.206-8.303-18.508-18.508-18.508h-22.677
				c-10.205,0-18.508,8.303-18.508,18.508v79.37c0,8.551-6.957,15.508-15.508,15.508h-22.677c-8.551,0-15.508-6.957-15.508-15.508
				v-22.677c0-10.205-8.303-18.508-18.508-18.508h-249.449c-10.205,0-18.508,8.303-18.508,18.508v22.677
				c0,8.551-6.957,15.508-15.508,15.508h-22.677c-8.551,0-15.508-6.957-15.508-15.508v-79.37c0-10.206-8.303-18.508-18.508-18.508
				h-22.677c-10.205,0-18.508,8.303-18.508,18.508v79.37c0,8.551-6.957,15.508-15.508,15.508h-22.677
				c-8.551,0-15.508-6.957-15.508-15.508V249.504c0-8.551,6.957-15.508,15.508-15.508h22.677c10.205,0,18.508-8.303,18.508-18.508
				v-22.677c0-8.551,6.957-15.508,15.508-15.508h22.677c10.205,0,18.508-8.303,18.508-18.508v-22.677
				c0-8.551,6.957-15.508,15.508-15.508h22.677c10.205,0,18.508-8.303,18.508-18.508V79.425c0-10.205-8.303-18.508-18.508-18.508
				h-22.677c-8.551,0-15.508-6.957-15.508-15.508V22.732c0-8.551,6.957-15.508,15.508-15.508h22.677
				c8.551,0,15.508,6.957,15.508,15.508v22.677c0,10.205,8.303,18.508,18.508,18.508h22.677c8.551,0,15.508,6.957,15.508,15.508
				v22.677c0,10.205,8.303,18.508,18.508,18.508h136.063c10.205,0,18.508-8.303,18.508-18.508V79.425
				c0-8.551,6.957-15.508,15.508-15.508h22.677c10.205,0,18.508-8.303,18.508-18.508V22.732c0-8.551,6.957-15.508,15.508-15.508
				H-155.337 M-223.369,287.854c33.651,0,61.028-27.377,61.028-61.027c0-33.651-27.377-61.028-61.028-61.028
				c-33.65,0-61.027,27.377-61.027,61.028C-284.396,260.477-257.02,287.854-223.369,287.854 M-450.141,287.854
				c33.65,0,61.027-27.377,61.027-61.027c0-33.651-27.377-61.028-61.027-61.028c-33.651,0-61.028,27.377-61.028,61.028
				C-511.168,260.477-483.792,287.854-450.141,287.854 M-155.337,5.724c-7.559,0-15.118,0-22.677,0
				c-9.393,0-17.008,7.615-17.008,17.008c0,7.559,0,15.118,0,22.677c0,9.393-7.615,17.008-17.008,17.008c-7.559,0-15.118,0-22.677,0
				c-9.393,0-17.008,7.615-17.008,17.008c0,7.559,0,15.118,0,22.677c0,9.393-7.615,17.008-17.008,17.008
				c-45.354,0-90.709,0-136.063,0c-9.393,0-17.008-7.615-17.008-17.008c0-7.559,0-15.118,0-22.677
				c0-9.393-7.615-17.008-17.008-17.008c-7.559,0-15.118,0-22.677,0c-9.393,0-17.008-7.615-17.008-17.008c0-7.559,0-15.118,0-22.677
				c0-9.393-7.615-17.008-17.008-17.008c-7.559,0-15.118,0-22.677,0c-9.393,0-17.008,7.615-17.008,17.008c0,7.559,0,15.118,0,22.677
				c0,9.393,7.615,17.008,17.008,17.008c7.559,0,15.118,0,22.677,0c9.393,0,17.008,7.615,17.008,17.008c0,7.559,0,15.118,0,22.677
				c0,9.393-7.615,17.008-17.008,17.008c-7.559,0-15.118,0-22.677,0c-9.393,0-17.008,7.615-17.008,17.008c0,7.559,0,15.118,0,22.677
				c0,9.394-7.615,17.008-17.008,17.008c-7.559,0-15.118,0-22.677,0c-9.393,0-17.008,7.615-17.008,17.008c0,7.559,0,15.118,0,22.677
				c0,9.394-7.615,17.008-17.008,17.008c-7.559,0-15.118,0-22.677,0c-9.393,0-17.008,7.615-17.008,17.008
				c0,45.354,0,90.708,0,136.063c0,9.393,7.615,17.008,17.008,17.008c7.559,0,15.118,0,22.677,0c9.393,0,17.008-7.615,17.008-17.008
				c0-26.457,0-52.914,0-79.37c0-9.394,7.615-17.008,17.008-17.008c7.559,0,15.118,0,22.677,0c9.393,0,17.008,7.615,17.008,17.008
				c0,26.457,0,52.913,0,79.37c0,9.393,7.615,17.008,17.008,17.008c7.559,0,15.118,0,22.677,0c9.393,0,17.008-7.615,17.008-17.008
				c0-7.559,0-15.118,0-22.677c0-9.394,7.615-17.008,17.008-17.008c83.15,0,166.299,0,249.449,0c9.393,0,17.008,7.614,17.008,17.008
				c0,7.559,0,15.118,0,22.677c0,9.393,7.615,17.008,17.008,17.008c7.559,0,15.118,0,22.677,0c9.393,0,17.008-7.615,17.008-17.008
				c0-26.457,0-52.914,0-79.37c0-9.394,7.615-17.008,17.008-17.008c7.559,0,15.118,0,22.677,0c9.393,0,17.008,7.615,17.008,17.008
				c0,26.457,0,52.913,0,79.37c0,9.393,7.615,17.008,17.008,17.008c7.559,0,15.118,0,22.677,0c9.393,0,17.008-7.615,17.008-17.008
				c0-45.354,0-90.709,0-136.063c0-9.394-7.615-17.008-17.008-17.008c-7.559,0-15.118,0-22.677,0
				c-9.393,0-17.008-7.614-17.008-17.008c0-7.559,0-15.118,0-22.677c0-9.394-7.615-17.008-17.008-17.008c-7.559,0-15.118,0-22.677,0
				c-9.393,0-17.008-7.614-17.008-17.008c0-7.559,0-15.118,0-22.677c0-9.394-7.615-17.008-17.008-17.008c-7.559,0-15.118,0-22.677,0
				c-9.393,0-17.008-7.615-17.008-17.008c0-7.559,0-15.118,0-22.677c0-9.393,7.615-17.008,17.008-17.008c7.559,0,15.118,0,22.677,0
				c9.393,0,17.008-7.615,17.008-17.008c0-7.559,0-15.118,0-22.677C-138.33,13.339-145.944,5.724-155.337,5.724L-155.337,5.724z
				 M-223.369,286.354c-32.876,0-59.527-26.651-59.527-59.527c0-32.876,26.651-59.528,59.527-59.528
				c32.876,0,59.528,26.651,59.528,59.528C-163.841,259.702-190.493,286.354-223.369,286.354L-223.369,286.354z M-450.141,286.354
				c-32.876,0-59.528-26.651-59.528-59.527c0-32.876,26.651-59.528,59.528-59.528c32.876,0,59.527,26.651,59.527,59.528
				C-390.613,259.702-417.265,286.354-450.141,286.354L-450.141,286.354z"/>
		</g>
	</g>
	<g>
		<g>
			<path fill="#A09A97" d="M586.772,398.935c-8.964,0-16.258-7.293-16.258-16.258v-79.37c0-9.792-7.966-17.758-17.758-17.758
				h-22.678c-9.792,0-17.758,7.966-17.758,17.758v79.37c0,8.965-7.293,16.258-16.258,16.258h-22.677
				c-8.964,0-16.258-7.293-16.258-16.258V360c0-9.792-7.966-17.758-17.758-17.758H189.921c-9.792,0-17.758,7.966-17.758,17.758
				v22.677c0,8.965-7.293,16.258-16.258,16.258h-22.678c-8.965,0-16.258-7.293-16.258-16.258v-79.37
				c0-9.792-7.966-17.758-17.758-17.758H76.536c-9.792,0-17.758,7.966-17.758,17.758v79.37c0,8.965-7.293,16.258-16.258,16.258
				H19.842c-8.965,0-16.258-7.293-16.258-16.258V246.614c0-8.965,7.293-16.258,16.258-16.258H42.52
				c9.792,0,17.758-7.966,17.758-17.758v-22.677c0-8.965,7.293-16.258,16.258-16.258h22.677c9.792,0,17.758-7.966,17.758-17.758
				v-22.677c0-8.965,7.293-16.258,16.258-16.258h22.678c9.792,0,17.758-7.966,17.758-17.758V76.535
				c0-9.792-7.966-17.758-17.758-17.758h-22.678c-8.965,0-16.258-7.293-16.258-16.258V19.842c0-8.964,7.293-16.257,16.258-16.257
				h22.678c8.964,0,16.258,7.293,16.258,16.257v22.677c0,9.792,7.966,17.758,17.758,17.758h22.677
				c8.965,0,16.258,7.293,16.258,16.258v22.677c0,9.792,7.966,17.758,17.758,17.758h136.063c9.792,0,17.758-7.966,17.758-17.758
				V76.535c0-8.964,7.293-16.258,16.258-16.258h22.678c9.792,0,17.758-7.966,17.758-17.758V19.842
				c0-8.964,7.293-16.257,16.258-16.257h22.677c8.965,0,16.258,7.293,16.258,16.257v22.677c0,8.964-7.293,16.258-16.258,16.258
				h-22.677c-9.792,0-17.758,7.966-17.758,17.758v22.677c0,9.792,7.966,17.758,17.758,17.758h22.677
				c8.965,0,16.258,7.293,16.258,16.258v22.677c0,9.792,7.966,17.758,17.758,17.758h22.678c8.964,0,16.258,7.293,16.258,16.258
				v22.677c0,9.792,7.966,17.758,17.758,17.758h22.677c8.965,0,16.258,7.293,16.258,16.258v136.063
				c0,8.965-7.293,16.258-16.258,16.258H586.772z M428.032,163.659c-33.237,0-60.277,27.041-60.277,60.278
				c0,33.237,27.041,60.277,60.277,60.277s60.277-27.041,60.277-60.277C488.309,190.699,461.269,163.659,428.032,163.659z
				 M201.26,163.659c-33.238,0-60.278,27.041-60.278,60.278c0,33.237,27.041,60.277,60.278,60.277
				c33.237,0,60.277-27.041,60.277-60.277C261.538,190.699,234.497,163.659,201.26,163.659z"/>
			<path fill="#A09A97" d="M496.063,4.335c8.551,0,15.508,6.957,15.508,15.507v22.677c0,8.551-6.957,15.508-15.508,15.508h-22.677
				c-10.205,0-18.508,8.303-18.508,18.508v22.677c0,10.205,8.303,18.508,18.508,18.508h22.677c8.551,0,15.508,6.957,15.508,15.508
				v22.677c0,10.205,8.303,18.508,18.508,18.508h22.678c8.551,0,15.508,6.957,15.508,15.508v22.677
				c0,10.205,8.303,18.508,18.508,18.508h22.677c8.551,0,15.508,6.957,15.508,15.508v136.063c0,8.551-6.957,15.508-15.508,15.508
				h-22.677c-8.551,0-15.508-6.957-15.508-15.508v-79.37c0-10.206-8.303-18.508-18.508-18.508h-22.678
				c-10.205,0-18.508,8.303-18.508,18.508v79.37c0,8.551-6.957,15.508-15.508,15.508h-22.677c-8.551,0-15.508-6.957-15.508-15.508
				V360c0-10.205-8.303-18.508-18.508-18.508H189.921c-10.205,0-18.508,8.303-18.508,18.508v22.677
				c0,8.551-6.957,15.508-15.508,15.508h-22.678c-8.551,0-15.508-6.957-15.508-15.508v-79.37c0-10.206-8.303-18.508-18.508-18.508
				H76.536c-10.205,0-18.508,8.303-18.508,18.508v79.37c0,8.551-6.957,15.508-15.508,15.508H19.842
				c-8.551,0-15.508-6.957-15.508-15.508V246.614c0-8.551,6.957-15.508,15.508-15.508H42.52c10.205,0,18.508-8.303,18.508-18.508
				v-22.677c0-8.551,6.957-15.508,15.508-15.508h22.677c10.205,0,18.508-8.303,18.508-18.508v-22.677
				c0-8.551,6.957-15.508,15.508-15.508h22.678c10.205,0,18.508-8.303,18.508-18.508V76.535c0-10.205-8.303-18.508-18.508-18.508
				h-22.678c-8.551,0-15.508-6.957-15.508-15.508V19.842c0-8.551,6.957-15.507,15.508-15.507h22.678
				c8.551,0,15.508,6.957,15.508,15.507v22.677c0,10.205,8.303,18.508,18.508,18.508h22.677c8.551,0,15.508,6.957,15.508,15.508
				v22.677c0,10.205,8.303,18.508,18.508,18.508h136.063c10.205,0,18.508-8.303,18.508-18.508V76.535
				c0-8.551,6.957-15.508,15.508-15.508h22.678c10.205,0,18.508-8.303,18.508-18.508V19.842c0-8.551,6.957-15.507,15.508-15.507
				H496.063 M428.032,284.964c33.65,0,61.027-27.377,61.027-61.027c0-33.651-27.377-61.028-61.027-61.028
				s-61.027,27.377-61.027,61.028C367.004,257.587,394.381,284.964,428.032,284.964 M201.26,284.964
				c33.65,0,61.027-27.377,61.027-61.027c0-33.651-27.377-61.028-61.027-61.028c-33.651,0-61.028,27.377-61.028,61.028
				C140.232,257.587,167.609,284.964,201.26,284.964 M496.063,2.835c-7.559,0-15.118,0-22.677,0
				c-9.394,0-17.008,7.614-17.008,17.007c0,7.559,0,15.118,0,22.677c0,9.393-7.615,17.008-17.008,17.008c-7.56,0-15.118,0-22.678,0
				c-9.393,0-17.008,7.615-17.008,17.008c0,7.559,0,15.118,0,22.677c0,9.393-7.614,17.008-17.008,17.008
				c-45.354,0-90.709,0-136.063,0c-9.393,0-17.008-7.615-17.008-17.008c0-7.559,0-15.118,0-22.677
				c0-9.393-7.614-17.008-17.008-17.008c-7.559,0-15.118,0-22.677,0c-9.394,0-17.008-7.615-17.008-17.008c0-7.559,0-15.118,0-22.677
				c0-9.393-7.615-17.007-17.008-17.007c-7.56,0-15.118,0-22.678,0c-9.393,0-17.008,7.614-17.008,17.007c0,7.559,0,15.118,0,22.677
				c0,9.393,7.615,17.008,17.008,17.008c7.56,0,15.118,0,22.678,0c9.393,0,17.008,7.615,17.008,17.008c0,7.559,0,15.118,0,22.677
				c0,9.393-7.615,17.008-17.008,17.008c-7.56,0-15.118,0-22.678,0c-9.393,0-17.008,7.615-17.008,17.008c0,7.559,0,15.118,0,22.677
				c0,9.394-7.614,17.008-17.008,17.008c-7.559,0-15.118,0-22.677,0c-9.394,0-17.008,7.615-17.008,17.008c0,7.559,0,15.118,0,22.677
				c0,9.394-7.615,17.008-17.008,17.008c-7.56,0-15.118,0-22.678,0c-9.393,0-17.008,7.615-17.008,17.008
				c0,45.354,0,90.708,0,136.063c0,9.393,7.615,17.008,17.008,17.008c7.56,0,15.118,0,22.678,0c9.393,0,17.008-7.615,17.008-17.008
				c0-26.457,0-52.914,0-79.37c0-9.394,7.614-17.008,17.008-17.008c7.559,0,15.118,0,22.677,0c9.394,0,17.008,7.615,17.008,17.008
				c0,26.457,0,52.913,0,79.37c0,9.393,7.615,17.008,17.008,17.008c7.56,0,15.118,0,22.678,0c9.393,0,17.008-7.615,17.008-17.008
				c0-7.559,0-15.118,0-22.677c0-9.394,7.614-17.008,17.008-17.008c83.149,0,166.299,0,249.449,0
				c9.393,0,17.008,7.614,17.008,17.008c0,7.559,0,15.118,0,22.677c0,9.393,7.614,17.008,17.008,17.008c7.559,0,15.118,0,22.677,0
				c9.394,0,17.008-7.615,17.008-17.008c0-26.457,0-52.914,0-79.37c0-9.394,7.615-17.008,17.008-17.008c7.56,0,15.118,0,22.678,0
				c9.393,0,17.008,7.615,17.008,17.008c0,26.457,0,52.913,0,79.37c0,9.393,7.614,17.008,17.008,17.008c7.559,0,15.118,0,22.677,0
				c9.394,0,17.008-7.615,17.008-17.008c0-45.354,0-90.709,0-136.063c0-9.394-7.614-17.008-17.008-17.008
				c-7.559,0-15.118,0-22.677,0c-9.394,0-17.008-7.614-17.008-17.008c0-7.559,0-15.118,0-22.677c0-9.394-7.615-17.008-17.008-17.008
				c-7.56,0-15.118,0-22.678,0c-9.393,0-17.008-7.614-17.008-17.008c0-7.559,0-15.118,0-22.677c0-9.394-7.614-17.008-17.008-17.008
				c-7.559,0-15.118,0-22.677,0c-9.394,0-17.008-7.615-17.008-17.008c0-7.559,0-15.118,0-22.677c0-9.393,7.614-17.008,17.008-17.008
				c7.559,0,15.118,0,22.677,0c9.394,0,17.008-7.615,17.008-17.008c0-7.559,0-15.118,0-22.677
				C513.071,10.449,505.457,2.835,496.063,2.835L496.063,2.835z M428.032,283.464c-32.876,0-59.527-26.651-59.527-59.527
				c0-32.876,26.651-59.528,59.527-59.528s59.527,26.651,59.527,59.528C487.559,256.813,460.908,283.464,428.032,283.464
				L428.032,283.464z M201.26,283.464c-32.877,0-59.528-26.651-59.528-59.527c0-32.876,26.651-59.528,59.528-59.528
				c32.876,0,59.527,26.651,59.527,59.528C260.788,256.813,234.136,283.464,201.26,283.464L201.26,283.464z"/>
		</g>
		<g>
			<path fill="#D3D1CB" d="M583.938,396.1c-8.964,0-16.258-7.293-16.258-16.258v-79.37c0-9.792-7.966-17.758-17.758-17.758h-22.678
				c-9.792,0-17.758,7.966-17.758,17.758v79.37c0,8.965-7.293,16.258-16.258,16.258h-22.677c-8.964,0-16.258-7.293-16.258-16.258
				v-22.677c0-9.792-7.966-17.758-17.758-17.758H187.087c-9.792,0-17.758,7.966-17.758,17.758v22.677
				c0,8.965-7.293,16.258-16.258,16.258h-22.678c-8.965,0-16.258-7.293-16.258-16.258v-79.37c0-9.792-7.966-17.758-17.758-17.758
				H73.701c-9.792,0-17.758,7.966-17.758,17.758v79.37c0,8.965-7.293,16.258-16.258,16.258H17.008
				c-8.965,0-16.258-7.293-16.258-16.258V243.78c0-8.965,7.293-16.258,16.258-16.258h22.678c9.792,0,17.758-7.966,17.758-17.758
				v-22.677c0-8.965,7.293-16.258,16.258-16.258h22.677c9.792,0,17.758-7.966,17.758-17.758v-22.677
				c0-8.965,7.293-16.258,16.258-16.258h22.678c9.792,0,17.758-7.966,17.758-17.758V73.7c0-9.792-7.966-17.758-17.758-17.758
				h-22.678c-8.965,0-16.258-7.293-16.258-16.258V17.008c0-8.964,7.293-16.258,16.258-16.258h22.678
				c8.964,0,16.258,7.293,16.258,16.258v22.677c0,9.792,7.966,17.758,17.758,17.758h22.677c8.965,0,16.258,7.293,16.258,16.258
				v22.677c0,9.792,7.966,17.758,17.758,17.758h136.063c9.792,0,17.758-7.966,17.758-17.758V73.7
				c0-8.964,7.293-16.258,16.258-16.258h22.678c9.792,0,17.758-7.966,17.758-17.758V17.008c0-8.964,7.293-16.258,16.258-16.258
				h22.677c8.965,0,16.258,7.293,16.258,16.258v22.677c0,8.964-7.293,16.258-16.258,16.258h-22.677
				c-9.792,0-17.758,7.966-17.758,17.758v22.677c0,9.792,7.966,17.758,17.758,17.758h22.677c8.965,0,16.258,7.293,16.258,16.258
				v22.677c0,9.792,7.966,17.758,17.758,17.758h22.678c8.964,0,16.258,7.293,16.258,16.258v22.677
				c0,9.792,7.966,17.758,17.758,17.758h22.677c8.965,0,16.258,7.293,16.258,16.258v136.063c0,8.965-7.293,16.258-16.258,16.258
				H583.938z M425.197,160.824c-33.237,0-60.277,27.041-60.277,60.278c0,33.237,27.041,60.277,60.277,60.277
				s60.277-27.041,60.277-60.277C485.475,187.865,458.434,160.824,425.197,160.824z M198.426,160.824
				c-33.238,0-60.278,27.041-60.278,60.278c0,33.237,27.041,60.277,60.278,60.277c33.237,0,60.277-27.041,60.277-60.277
				C258.703,187.865,231.663,160.824,198.426,160.824z"/>
			<path fill="#A09A97" d="M493.229,1.5c8.551,0,15.508,6.957,15.508,15.508v22.677c0,8.551-6.957,15.508-15.508,15.508h-22.677
				c-10.205,0-18.508,8.303-18.508,18.508v22.677c0,10.205,8.303,18.508,18.508,18.508h22.677c8.551,0,15.508,6.957,15.508,15.508
				v22.677c0,10.205,8.303,18.508,18.508,18.508h22.678c8.551,0,15.508,6.957,15.508,15.508v22.677
				c0,10.205,8.303,18.508,18.508,18.508h22.677c8.551,0,15.508,6.957,15.508,15.508v136.063c0,8.551-6.957,15.508-15.508,15.508
				h-22.677c-8.551,0-15.508-6.957-15.508-15.508v-79.37c0-10.206-8.303-18.508-18.508-18.508h-22.678
				c-10.205,0-18.508,8.303-18.508,18.508v79.37c0,8.551-6.957,15.508-15.508,15.508h-22.677c-8.551,0-15.508-6.957-15.508-15.508
				v-22.677c0-10.205-8.303-18.508-18.508-18.508H187.087c-10.205,0-18.508,8.303-18.508,18.508v22.677
				c0,8.551-6.957,15.508-15.508,15.508h-22.678c-8.551,0-15.508-6.957-15.508-15.508v-79.37c0-10.206-8.303-18.508-18.508-18.508
				H73.701c-10.205,0-18.508,8.303-18.508,18.508v79.37c0,8.551-6.957,15.508-15.508,15.508H17.008
				c-8.551,0-15.508-6.957-15.508-15.508V243.78c0-8.551,6.957-15.508,15.508-15.508h22.678c10.205,0,18.508-8.303,18.508-18.508
				v-22.677c0-8.551,6.957-15.508,15.508-15.508h22.677c10.205,0,18.508-8.303,18.508-18.508v-22.677
				c0-8.551,6.957-15.508,15.508-15.508h22.678c10.205,0,18.508-8.303,18.508-18.508V73.7c0-10.205-8.303-18.508-18.508-18.508
				h-22.678c-8.551,0-15.508-6.957-15.508-15.508V17.008c0-8.551,6.957-15.508,15.508-15.508h22.678
				c8.551,0,15.508,6.957,15.508,15.508v22.677c0,10.205,8.303,18.508,18.508,18.508h22.677c8.551,0,15.508,6.957,15.508,15.508
				v22.677c0,10.205,8.303,18.508,18.508,18.508h136.063c10.205,0,18.508-8.303,18.508-18.508V73.7
				c0-8.551,6.957-15.508,15.508-15.508h22.678c10.205,0,18.508-8.303,18.508-18.508V17.008C455.044,8.457,462,1.5,470.552,1.5
				H493.229 M425.197,282.13c33.65,0,61.027-27.377,61.027-61.027c0-33.651-27.377-61.028-61.027-61.028
				s-61.027,27.377-61.027,61.028C364.17,254.753,391.547,282.13,425.197,282.13 M198.426,282.13
				c33.65,0,61.027-27.377,61.027-61.027c0-33.651-27.377-61.028-61.027-61.028c-33.651,0-61.028,27.377-61.028,61.028
				C137.397,254.753,164.774,282.13,198.426,282.13 M493.229,0c-7.559,0-15.118,0-22.677,0c-9.394,0-17.008,7.615-17.008,17.008
				c0,7.559,0,15.118,0,22.677c0,9.393-7.615,17.008-17.008,17.008c-7.56,0-15.118,0-22.678,0c-9.393,0-17.008,7.615-17.008,17.008
				c0,7.559,0,15.118,0,22.677c0,9.393-7.614,17.008-17.008,17.008c-45.354,0-90.709,0-136.063,0
				c-9.393,0-17.008-7.615-17.008-17.008c0-7.559,0-15.118,0-22.677c0-9.393-7.614-17.008-17.008-17.008c-7.559,0-15.118,0-22.677,0
				c-9.394,0-17.008-7.615-17.008-17.008c0-7.559,0-15.118,0-22.677C170.079,7.615,162.464,0,153.071,0c-7.56,0-15.118,0-22.678,0
				c-9.393,0-17.008,7.615-17.008,17.008c0,7.559,0,15.118,0,22.677c0,9.393,7.615,17.008,17.008,17.008c7.56,0,15.118,0,22.678,0
				c9.393,0,17.008,7.615,17.008,17.008c0,7.559,0,15.118,0,22.677c0,9.393-7.615,17.008-17.008,17.008c-7.56,0-15.118,0-22.678,0
				c-9.393,0-17.008,7.615-17.008,17.008c0,7.559,0,15.118,0,22.677c0,9.394-7.614,17.008-17.008,17.008c-7.559,0-15.118,0-22.677,0
				c-9.394,0-17.008,7.615-17.008,17.008c0,7.559,0,15.118,0,22.677c0,9.394-7.615,17.008-17.008,17.008c-7.56,0-15.118,0-22.678,0
				C7.615,226.771,0,234.386,0,243.78c0,45.354,0,90.708,0,136.063c0,9.393,7.615,17.008,17.008,17.008c7.56,0,15.118,0,22.678,0
				c9.393,0,17.008-7.615,17.008-17.008c0-26.457,0-52.914,0-79.37c0-9.394,7.614-17.008,17.008-17.008c7.559,0,15.118,0,22.677,0
				c9.394,0,17.008,7.615,17.008,17.008c0,26.457,0,52.913,0,79.37c0,9.393,7.615,17.008,17.008,17.008c7.56,0,15.118,0,22.678,0
				c9.393,0,17.008-7.615,17.008-17.008c0-7.559,0-15.118,0-22.677c0-9.394,7.614-17.008,17.008-17.008
				c83.149,0,166.299,0,249.449,0c9.393,0,17.008,7.614,17.008,17.008c0,7.559,0,15.118,0,22.677
				c0,9.393,7.614,17.008,17.008,17.008c7.559,0,15.118,0,22.677,0c9.394,0,17.008-7.615,17.008-17.008c0-26.457,0-52.914,0-79.37
				c0-9.394,7.615-17.008,17.008-17.008c7.56,0,15.118,0,22.678,0c9.393,0,17.008,7.615,17.008,17.008c0,26.457,0,52.913,0,79.37
				c0,9.393,7.614,17.008,17.008,17.008c7.559,0,15.118,0,22.677,0c9.394,0,17.008-7.615,17.008-17.008c0-45.354,0-90.709,0-136.063
				c0-9.394-7.614-17.008-17.008-17.008c-7.559,0-15.118,0-22.677,0c-9.394,0-17.008-7.614-17.008-17.008c0-7.559,0-15.118,0-22.677
				c0-9.394-7.615-17.008-17.008-17.008c-7.56,0-15.118,0-22.678,0c-9.393,0-17.008-7.614-17.008-17.008c0-7.559,0-15.118,0-22.677
				c0-9.394-7.614-17.008-17.008-17.008c-7.559,0-15.118,0-22.677,0c-9.394,0-17.008-7.615-17.008-17.008c0-7.559,0-15.118,0-22.677
				c0-9.393,7.614-17.008,17.008-17.008c7.559,0,15.118,0,22.677,0c9.394,0,17.008-7.615,17.008-17.008c0-7.559,0-15.118,0-22.677
				C510.236,7.615,502.622,0,493.229,0L493.229,0z M425.197,280.63c-32.876,0-59.527-26.651-59.527-59.527
				c0-32.876,26.651-59.528,59.527-59.528s59.527,26.651,59.527,59.528C484.725,253.978,458.073,280.63,425.197,280.63
				L425.197,280.63z M198.426,280.63c-32.877,0-59.528-26.651-59.528-59.527c0-32.876,26.651-59.528,59.528-59.528
				c32.876,0,59.527,26.651,59.527,59.528C257.953,253.978,231.302,280.63,198.426,280.63L198.426,280.63z"/>
		</g>
	</g>
</g>
<g id="Eyebrows">
	<g>
		<g>
			<path fill="#282828" d="M-182.976,132.783c-1.287,0-2.334-1.047-2.334-2.334v-1.417c0-1.839-1.496-3.334-3.334-3.334h-65.197
				c-1.839,0-3.335,1.496-3.335,3.334v1.417c0,1.287-1.047,2.334-2.334,2.334h-36.851c-1.287,0-2.334-1.047-2.334-2.334v-8.504
				c0-1.288,1.047-2.335,2.334-2.335h15.591c1.839,0,3.334-1.496,3.334-3.334v-1.417c0-1.287,1.047-2.334,2.335-2.334h22.677
				c1.839,0,3.335-1.496,3.335-3.334v-1.417c0-1.287,1.047-2.334,2.334-2.334h51.023c1.288,0,2.335,1.047,2.335,2.334v1.417
				c0,1.839,1.496,3.334,3.334,3.334h22.677c1.287,0,2.334,1.047,2.334,2.334v1.417c0,1.839,1.496,3.334,3.335,3.334h15.59
				c1.287,0,2.334,1.047,2.334,2.335v8.504c0,1.287-1.047,2.334-2.334,2.334H-182.976z"/>
			<path fill="#282828" d="M-195.731,105.937c1.012,0,1.835,0.823,1.835,1.834v1.417c0,2.114,1.72,3.834,3.834,3.834h22.677
				c1.012,0,1.834,0.823,1.834,1.834v1.417c0,2.114,1.72,3.834,3.835,3.834h15.59c1.012,0,1.834,0.823,1.834,1.835v8.504
				c0,1.012-0.823,1.834-1.834,1.834h-36.851c-1.012,0-1.834-0.823-1.834-1.834v-1.417c0-2.114-1.72-3.834-3.834-3.834h-65.197
				c-2.115,0-3.835,1.72-3.835,3.834v1.417c0,1.012-0.823,1.834-1.834,1.834h-36.851c-1.012,0-1.834-0.823-1.834-1.834v-8.504
				c0-1.012,0.823-1.835,1.834-1.835h15.591c2.114,0,3.834-1.72,3.834-3.834v-1.417c0-1.012,0.823-1.834,1.835-1.834h22.677
				c2.115,0,3.835-1.72,3.835-3.834v-1.417c0-1.012,0.823-1.834,1.834-1.834H-195.731 M-195.731,104.937
				c-17.008,0-34.016,0-51.023,0c-1.565,0-2.834,1.269-2.834,2.834c0,0.473,0,0.945,0,1.417c0,1.565-1.269,2.834-2.835,2.834
				c-7.559,0-15.118,0-22.677,0c-1.566,0-2.835,1.269-2.835,2.834c0,0.473,0,0.945,0,1.417c0,1.565-1.269,2.834-2.834,2.834
				c-5.197,0-10.394,0-15.591,0c-1.565,0-2.834,1.269-2.834,2.835c0,2.834,0,5.669,0,8.504c0,1.565,1.269,2.834,2.834,2.834
				c12.284,0,24.567,0,36.851,0c1.565,0,2.834-1.269,2.834-2.834c0-0.473,0-0.945,0-1.417c0-1.565,1.269-2.834,2.835-2.834
				c21.732,0,43.464,0,65.197,0c1.565,0,2.834,1.269,2.834,2.834c0,0.473,0,0.945,0,1.417c0,1.565,1.269,2.834,2.834,2.834
				c12.284,0,24.567,0,36.851,0c1.565,0,2.834-1.269,2.834-2.834c0-2.835,0-5.669,0-8.504c0-1.566-1.269-2.835-2.834-2.835
				c-5.197,0-10.394,0-15.59,0c-1.566,0-2.835-1.269-2.835-2.834c0-0.473,0-0.945,0-1.417c0-1.565-1.269-2.834-2.834-2.834
				c-7.559,0-15.118,0-22.677,0c-1.565,0-2.834-1.269-2.834-2.834c0-0.473,0-0.945,0-1.417
				C-192.896,106.206-194.166,104.937-195.731,104.937L-195.731,104.937z"/>
		</g>
		<g>
			<path fill="#5B5B5A" d="M-185.102,130.657c-1.287,0-2.334-1.047-2.334-2.334v-1.417c0-1.839-1.496-3.334-3.334-3.334h-65.197
				c-1.839,0-3.335,1.496-3.335,3.334v1.417c0,1.287-1.047,2.334-2.334,2.334h-36.851c-1.287,0-2.334-1.047-2.334-2.334v-8.504
				c0-1.288,1.047-2.335,2.334-2.335h15.591c1.839,0,3.334-1.496,3.334-3.334v-1.417c0-1.287,1.047-2.334,2.335-2.334h22.677
				c1.839,0,3.335-1.496,3.335-3.334v-1.417c0-1.287,1.047-2.334,2.334-2.334h51.023c1.288,0,2.335,1.047,2.335,2.334v1.417
				c0,1.839,1.496,3.334,3.334,3.334h22.677c1.287,0,2.334,1.047,2.334,2.334v1.417c0,1.839,1.496,3.334,3.335,3.334h15.59
				c1.287,0,2.334,1.047,2.334,2.335v8.504c0,1.287-1.047,2.334-2.334,2.334H-185.102z"/>
			<path fill="#262626" d="M-197.857,103.811c1.012,0,1.835,0.823,1.835,1.834v1.417c0,2.114,1.72,3.834,3.834,3.834h22.677
				c1.012,0,1.834,0.823,1.834,1.834v1.417c0,2.114,1.72,3.834,3.835,3.834h15.59c1.012,0,1.834,0.823,1.834,1.835v8.504
				c0,1.012-0.823,1.834-1.834,1.834h-36.851c-1.012,0-1.834-0.823-1.834-1.834v-1.417c0-2.114-1.72-3.834-3.834-3.834h-65.197
				c-2.115,0-3.835,1.72-3.835,3.834v1.417c0,1.012-0.823,1.834-1.834,1.834h-36.851c-1.012,0-1.834-0.823-1.834-1.834v-8.504
				c0-1.012,0.823-1.835,1.834-1.835h15.591c2.114,0,3.834-1.72,3.834-3.834v-1.417c0-1.012,0.823-1.834,1.835-1.834h22.677
				c2.115,0,3.835-1.72,3.835-3.834v-1.417c0-1.012,0.823-1.834,1.834-1.834H-197.857 M-197.857,102.811
				c-17.008,0-34.016,0-51.023,0c-1.565,0-2.834,1.269-2.834,2.834c0,0.473,0,0.945,0,1.417c0,1.565-1.269,2.834-2.835,2.834
				c-7.559,0-15.118,0-22.677,0c-1.566,0-2.835,1.269-2.835,2.834c0,0.473,0,0.945,0,1.417c0,1.565-1.269,2.834-2.834,2.834
				c-5.197,0-10.394,0-15.591,0c-1.565,0-2.834,1.269-2.834,2.835c0,2.834,0,5.669,0,8.504c0,1.565,1.269,2.834,2.834,2.834
				c12.284,0,24.567,0,36.851,0c1.565,0,2.834-1.269,2.834-2.834c0-0.473,0-0.945,0-1.417c0-1.565,1.269-2.834,2.835-2.834
				c21.732,0,43.464,0,65.197,0c1.565,0,2.834,1.269,2.834,2.834c0,0.473,0,0.945,0,1.417c0,1.565,1.269,2.834,2.834,2.834
				c12.284,0,24.567,0,36.851,0c1.565,0,2.834-1.269,2.834-2.834c0-2.835,0-5.669,0-8.504c0-1.566-1.269-2.835-2.834-2.835
				c-5.197,0-10.394,0-15.59,0c-1.566,0-2.835-1.269-2.835-2.834c0-0.473,0-0.945,0-1.417c0-1.565-1.269-2.834-2.834-2.834
				c-7.559,0-15.118,0-22.677,0c-1.565,0-2.834-1.269-2.834-2.834c0-0.473,0-0.945,0-1.417
				C-195.022,104.08-196.292,102.811-197.857,102.811L-197.857,102.811z"/>
		</g>
	</g>
	<g>
		<g>
			<path fill="#282828" d="M-409.747,132.783c-1.287,0-2.334-1.047-2.334-2.334v-1.417c0-1.839-1.496-3.334-3.335-3.334h-65.197
				c-1.839,0-3.334,1.496-3.334,3.334v1.417c0,1.287-1.047,2.334-2.334,2.334h-36.851c-1.287,0-2.334-1.047-2.334-2.334v-8.504
				c0-1.288,1.047-2.335,2.334-2.335h15.59c1.839,0,3.335-1.496,3.335-3.334v-1.417c0-1.287,1.047-2.334,2.334-2.334h22.677
				c1.839,0,3.334-1.496,3.334-3.334v-1.417c0-1.287,1.047-2.334,2.335-2.334h51.023c1.287,0,2.334,1.047,2.334,2.334v1.417
				c0,1.839,1.496,3.334,3.335,3.334h22.677c1.288,0,2.335,1.047,2.335,2.334v1.417c0,1.839,1.496,3.334,3.334,3.334h15.591
				c1.287,0,2.334,1.047,2.334,2.335v8.504c0,1.287-1.047,2.334-2.334,2.334H-409.747z"/>
			<path fill="#282828" d="M-422.503,105.937c1.012,0,1.834,0.823,1.834,1.834v1.417c0,2.114,1.72,3.834,3.835,3.834h22.677
				c1.012,0,1.835,0.823,1.835,1.834v1.417c0,2.114,1.72,3.834,3.834,3.834h15.591c1.012,0,1.834,0.823,1.834,1.835v8.504
				c0,1.012-0.823,1.834-1.834,1.834h-36.851c-1.012,0-1.834-0.823-1.834-1.834v-1.417c0-2.114-1.72-3.834-3.835-3.834h-65.197
				c-2.114,0-3.834,1.72-3.834,3.834v1.417c0,1.012-0.823,1.834-1.834,1.834h-36.851c-1.012,0-1.834-0.823-1.834-1.834v-8.504
				c0-1.012,0.823-1.835,1.834-1.835h15.59c2.115,0,3.835-1.72,3.835-3.834v-1.417c0-1.012,0.823-1.834,1.834-1.834h22.677
				c2.114,0,3.834-1.72,3.834-3.834v-1.417c0-1.012,0.823-1.834,1.835-1.834H-422.503 M-422.503,104.937
				c-17.008,0-34.016,0-51.023,0c-1.566,0-2.835,1.269-2.835,2.834c0,0.473,0,0.945,0,1.417c0,1.565-1.269,2.834-2.834,2.834
				c-7.559,0-15.118,0-22.677,0c-1.565,0-2.834,1.269-2.834,2.834c0,0.473,0,0.945,0,1.417c0,1.565-1.269,2.834-2.835,2.834
				c-5.197,0-10.394,0-15.59,0c-1.565,0-2.834,1.269-2.834,2.835c0,2.834,0,5.669,0,8.504c0,1.565,1.269,2.834,2.834,2.834
				c12.283,0,24.567,0,36.851,0c1.565,0,2.834-1.269,2.834-2.834c0-0.473,0-0.945,0-1.417c0-1.565,1.269-2.834,2.834-2.834
				c21.732,0,43.465,0,65.197,0c1.566,0,2.835,1.269,2.835,2.834c0,0.473,0,0.945,0,1.417c0,1.565,1.269,2.834,2.834,2.834
				c12.284,0,24.567,0,36.851,0c1.565,0,2.834-1.269,2.834-2.834c0-2.835,0-5.669,0-8.504c0-1.566-1.269-2.835-2.834-2.835
				c-5.197,0-10.394,0-15.591,0c-1.565,0-2.834-1.269-2.834-2.834c0-0.473,0-0.945,0-1.417c0-1.565-1.269-2.834-2.835-2.834
				c-7.559,0-15.118,0-22.677,0c-1.566,0-2.835-1.269-2.835-2.834c0-0.473,0-0.945,0-1.417
				C-419.668,106.206-420.938,104.937-422.503,104.937L-422.503,104.937z"/>
		</g>
		<g>
			<path fill="#5B5B5A" d="M-411.873,130.657c-1.287,0-2.334-1.047-2.334-2.334v-1.417c0-1.839-1.496-3.334-3.335-3.334h-65.197
				c-1.839,0-3.334,1.496-3.334,3.334v1.417c0,1.287-1.047,2.334-2.334,2.334h-36.851c-1.287,0-2.334-1.047-2.334-2.334v-8.504
				c0-1.288,1.047-2.335,2.334-2.335h15.59c1.839,0,3.335-1.496,3.335-3.334v-1.417c0-1.287,1.047-2.334,2.334-2.334h22.677
				c1.839,0,3.334-1.496,3.334-3.334v-1.417c0-1.287,1.047-2.334,2.335-2.334h51.023c1.287,0,2.334,1.047,2.334,2.334v1.417
				c0,1.839,1.496,3.334,3.335,3.334h22.677c1.288,0,2.335,1.047,2.335,2.334v1.417c0,1.839,1.496,3.334,3.334,3.334h15.591
				c1.287,0,2.334,1.047,2.334,2.335v8.504c0,1.287-1.047,2.334-2.334,2.334H-411.873z"/>
			<path fill="#262626" d="M-424.629,103.811c1.012,0,1.834,0.823,1.834,1.834v1.417c0,2.114,1.72,3.834,3.835,3.834h22.677
				c1.012,0,1.835,0.823,1.835,1.834v1.417c0,2.114,1.72,3.834,3.834,3.834h15.591c1.012,0,1.834,0.823,1.834,1.835v8.504
				c0,1.012-0.823,1.834-1.834,1.834h-36.851c-1.012,0-1.834-0.823-1.834-1.834v-1.417c0-2.114-1.72-3.834-3.835-3.834h-65.197
				c-2.114,0-3.834,1.72-3.834,3.834v1.417c0,1.012-0.823,1.834-1.834,1.834h-36.851c-1.012,0-1.834-0.823-1.834-1.834v-8.504
				c0-1.012,0.823-1.835,1.834-1.835h15.59c2.115,0,3.835-1.72,3.835-3.834v-1.417c0-1.012,0.823-1.834,1.834-1.834h22.677
				c2.114,0,3.834-1.72,3.834-3.834v-1.417c0-1.012,0.823-1.834,1.835-1.834H-424.629 M-424.629,102.811
				c-17.008,0-34.016,0-51.023,0c-1.566,0-2.835,1.269-2.835,2.834c0,0.473,0,0.945,0,1.417c0,1.565-1.269,2.834-2.834,2.834
				c-7.559,0-15.118,0-22.677,0c-1.565,0-2.834,1.269-2.834,2.834c0,0.473,0,0.945,0,1.417c0,1.565-1.269,2.834-2.835,2.834
				c-5.197,0-10.394,0-15.59,0c-1.565,0-2.834,1.269-2.834,2.835c0,2.834,0,5.669,0,8.504c0,1.565,1.269,2.834,2.834,2.834
				c12.283,0,24.567,0,36.851,0c1.565,0,2.834-1.269,2.834-2.834c0-0.473,0-0.945,0-1.417c0-1.565,1.269-2.834,2.834-2.834
				c21.732,0,43.465,0,65.197,0c1.566,0,2.835,1.269,2.835,2.834c0,0.473,0,0.945,0,1.417c0,1.565,1.269,2.834,2.834,2.834
				c12.284,0,24.567,0,36.851,0c1.565,0,2.834-1.269,2.834-2.834c0-2.835,0-5.669,0-8.504c0-1.566-1.269-2.835-2.834-2.835
				c-5.197,0-10.394,0-15.591,0c-1.565,0-2.834-1.269-2.834-2.834c0-0.473,0-0.945,0-1.417c0-1.565-1.269-2.834-2.835-2.834
				c-7.559,0-15.118,0-22.677,0c-1.566,0-2.835-1.269-2.835-2.834c0-0.473,0-0.945,0-1.417
				C-421.794,104.08-423.063,102.811-424.629,102.811L-424.629,102.811z"/>
		</g>
	</g>
</g>
<g id="Screws">
	<circle fill="#A09188" stroke="#7F7B79" stroke-miterlimit="10" cx="-336.755" cy="317.535" r="8.504"/>
	<polygon fill="#54504E" points="-334.709,321.078 -332.664,317.535 -334.709,313.991 -338.801,313.991 -340.846,317.535 
		-338.801,321.078 	"/>
	<circle fill="#A09188" stroke="#7F7B79" stroke-miterlimit="10" cx="-87.306" cy="249.504" r="8.504"/>
	<polygon fill="#54504E" points="-85.26,253.047 -83.214,249.504 -85.26,245.96 -89.352,245.96 -91.397,249.504 -89.352,253.047 	
		"/>
	<circle fill="#A09188" stroke="#7F7B79" stroke-miterlimit="10" cx="-586.204" cy="249.504" r="8.504"/>
	<polygon fill="#54504E" points="-584.158,253.047 -582.112,249.504 -584.158,245.96 -588.249,245.96 -590.295,249.504 
		-588.249,253.047 	"/>
	<circle fill="#A09188" stroke="#7F7B79" stroke-miterlimit="10" cx="-450.141" cy="430.921" r="6.378"/>
	<polygon fill="#54504E" points="-451.777,428.086 -453.414,430.921 -451.777,433.756 -448.504,433.756 -446.868,430.921 
		-448.504,428.086 	"/>
	<circle fill="#A09188" stroke="#7F7B79" stroke-miterlimit="10" cx="683.307" cy="28.346" r="6.378"/>
	<polygon fill="#54504E" points="681.67,25.512 680.034,28.346 681.67,31.181 684.944,31.181 686.58,28.346 684.944,25.512 	"/>
	<circle fill="#A09188" stroke="#7F7B79" stroke-miterlimit="10" cx="-223.369" cy="430.921" r="6.378"/>
	<polygon fill="#54504E" points="-225.006,428.086 -226.642,430.921 -225.006,433.756 -221.732,433.756 -220.096,430.921 
		-221.732,428.086 	"/>
	<circle fill="#A09188" stroke="#7F7B79" stroke-miterlimit="10" cx="-223.369" cy="113.441" r="6.378"/>
	<polygon fill="#54504E" points="-225.006,110.606 -226.642,113.441 -225.006,116.275 -221.732,116.275 -220.096,113.441 
		-221.732,110.606 	"/>
	<circle fill="#A09188" stroke="#7F7B79" stroke-miterlimit="10" cx="-450.141" cy="113.441" r="6.378"/>
	<polygon fill="#54504E" points="-451.777,110.606 -453.414,113.441 -451.777,116.275 -448.504,116.275 -446.868,113.441 
		-448.504,110.606 	"/>
	<g>
		<g>
			<path fill="#282828" d="M909.527,29.972c-1.287,0-2.334-1.047-2.334-2.334V26.22c0-1.839-1.496-3.334-3.335-3.334h-65.197
				c-1.839,0-3.334,1.496-3.334,3.334v1.417c0,1.287-1.047,2.334-2.334,2.334h-36.851c-1.287,0-2.334-1.047-2.334-2.334v-8.504
				c0-1.288,1.047-2.335,2.334-2.335h15.59c1.839,0,3.335-1.496,3.335-3.334v-1.417c0-1.287,1.047-2.334,2.334-2.334h22.677
				c1.839,0,3.334-1.496,3.334-3.334V4.961c0-1.287,1.047-2.334,2.335-2.334h51.023c1.287,0,2.334,1.047,2.334,2.334v1.417
				c0,1.839,1.496,3.334,3.335,3.334h22.677c1.288,0,2.335,1.047,2.335,2.334v1.417c0,1.839,1.496,3.334,3.334,3.334h15.591
				c1.287,0,2.334,1.047,2.334,2.335v8.504c0,1.287-1.047,2.334-2.334,2.334H909.527z"/>
			<path fill="#282828" d="M896.771,3.126c1.012,0,1.834,0.823,1.834,1.834v1.417c0,2.114,1.72,3.834,3.835,3.834h22.677
				c1.012,0,1.835,0.823,1.835,1.834v1.417c0,2.114,1.72,3.834,3.834,3.834h15.591c1.011,0,1.834,0.823,1.834,1.835v8.504
				c0,1.012-0.823,1.834-1.834,1.834h-36.851c-1.011,0-1.834-0.823-1.834-1.834V26.22c0-2.114-1.72-3.834-3.835-3.834h-65.197
				c-2.114,0-3.834,1.72-3.834,3.834v1.417c0,1.012-0.823,1.834-1.834,1.834h-36.851c-1.011,0-1.834-0.823-1.834-1.834v-8.504
				c0-1.012,0.823-1.835,1.834-1.835h15.59c2.115,0,3.835-1.72,3.835-3.834v-1.417c0-1.012,0.823-1.834,1.834-1.834h22.677
				c2.114,0,3.834-1.72,3.834-3.834V4.961c0-1.012,0.823-1.834,1.835-1.834H896.771 M896.771,2.126c-17.008,0-34.016,0-51.023,0
				c-1.566,0-2.835,1.269-2.835,2.834c0,0.473,0,0.945,0,1.417c0,1.565-1.269,2.834-2.834,2.834c-7.559,0-15.118,0-22.677,0
				c-1.565,0-2.834,1.269-2.834,2.834c0,0.473,0,0.945,0,1.417c0,1.565-1.269,2.834-2.835,2.834c-5.197,0-10.394,0-15.59,0
				c-1.565,0-2.834,1.269-2.834,2.835c0,2.834,0,5.669,0,8.504c0,1.565,1.269,2.834,2.834,2.834c12.283,0,24.567,0,36.851,0
				c1.565,0,2.834-1.269,2.834-2.834c0-0.473,0-0.945,0-1.417c0-1.565,1.269-2.834,2.834-2.834c21.732,0,43.465,0,65.197,0
				c1.566,0,2.835,1.269,2.835,2.834c0,0.473,0,0.945,0,1.417c0,1.565,1.269,2.834,2.834,2.834c12.284,0,24.567,0,36.851,0
				c1.565,0,2.834-1.269,2.834-2.834c0-2.835,0-5.669,0-8.504c0-1.566-1.269-2.835-2.834-2.835c-5.197,0-10.394,0-15.591,0
				c-1.565,0-2.834-1.269-2.834-2.834c0-0.473,0-0.945,0-1.417c0-1.565-1.269-2.834-2.835-2.834c-7.559,0-15.118,0-22.677,0
				c-1.566,0-2.835-1.269-2.835-2.834c0-0.473,0-0.945,0-1.417C899.605,3.395,898.336,2.126,896.771,2.126L896.771,2.126z"/>
		</g>
		<g>
			<path fill="#5B5B5A" d="M907.401,27.846c-1.287,0-2.334-1.047-2.334-2.334v-1.417c0-1.839-1.496-3.334-3.335-3.334h-65.197
				c-1.839,0-3.334,1.496-3.334,3.334v1.417c0,1.287-1.047,2.334-2.334,2.334h-36.851c-1.287,0-2.334-1.047-2.334-2.334v-8.504
				c0-1.288,1.047-2.335,2.334-2.335h15.59c1.839,0,3.335-1.496,3.335-3.334V9.921c0-1.287,1.047-2.334,2.334-2.334h22.677
				c1.839,0,3.334-1.496,3.334-3.334V2.835c0-1.287,1.047-2.334,2.335-2.334h51.023c1.287,0,2.334,1.047,2.334,2.334v1.417
				c0,1.839,1.496,3.334,3.335,3.334h22.677c1.288,0,2.335,1.047,2.335,2.334v1.417c0,1.839,1.496,3.334,3.334,3.334h15.591
				c1.287,0,2.334,1.047,2.334,2.335v8.504c0,1.287-1.047,2.334-2.334,2.334H907.401z"/>
			<path fill="#262626" d="M894.645,1c1.012,0,1.834,0.823,1.834,1.834v1.417c0,2.114,1.72,3.834,3.835,3.834h22.677
				c1.012,0,1.835,0.823,1.835,1.834v1.417c0,2.114,1.72,3.834,3.834,3.834h15.591c1.011,0,1.834,0.823,1.834,1.835v8.504
				c0,1.012-0.823,1.834-1.834,1.834h-36.851c-1.011,0-1.834-0.823-1.834-1.834v-1.417c0-2.114-1.72-3.834-3.835-3.834h-65.197
				c-2.114,0-3.834,1.72-3.834,3.834v1.417c0,1.012-0.823,1.834-1.834,1.834h-36.851c-1.011,0-1.834-0.823-1.834-1.834v-8.504
				c0-1.012,0.823-1.835,1.834-1.835h15.59c2.115,0,3.835-1.72,3.835-3.834V9.921c0-1.012,0.823-1.834,1.834-1.834h22.677
				c2.114,0,3.834-1.72,3.834-3.834V2.835c0-1.012,0.823-1.834,1.835-1.834H894.645 M894.645,0c-17.008,0-34.016,0-51.023,0
				c-1.566,0-2.835,1.269-2.835,2.834c0,0.473,0,0.945,0,1.417c0,1.565-1.269,2.834-2.834,2.834c-7.559,0-15.118,0-22.677,0
				c-1.565,0-2.834,1.269-2.834,2.834c0,0.473,0,0.945,0,1.417c0,1.565-1.269,2.834-2.835,2.834c-5.197,0-10.394,0-15.59,0
				c-1.565,0-2.834,1.269-2.834,2.835c0,2.834,0,5.669,0,8.504c0,1.565,1.269,2.834,2.834,2.834c12.283,0,24.567,0,36.851,0
				c1.565,0,2.834-1.269,2.834-2.834c0-0.473,0-0.945,0-1.417c0-1.565,1.269-2.834,2.834-2.834c21.732,0,43.465,0,65.197,0
				c1.566,0,2.835,1.269,2.835,2.834c0,0.473,0,0.945,0,1.417c0,1.565,1.269,2.834,2.834,2.834c12.284,0,24.567,0,36.851,0
				c1.565,0,2.834-1.269,2.834-2.834c0-2.835,0-5.669,0-8.504c0-1.566-1.269-2.835-2.834-2.835c-5.197,0-10.394,0-15.591,0
				c-1.565,0-2.834-1.269-2.834-2.834c0-0.473,0-0.945,0-1.417c0-1.565-1.269-2.834-2.835-2.834c-7.559,0-15.118,0-22.677,0
				c-1.566,0-2.835-1.269-2.835-2.834c0-0.473,0-0.945,0-1.417C897.479,1.269,896.21,0,894.645,0L894.645,0z"/>
		</g>
	</g>
	<circle fill="#A09188" stroke="#7F7B79" stroke-miterlimit="10" cx="869.133" cy="10.63" r="6.378"/>
	<polygon fill="#54504E" points="867.497,7.795 865.86,10.63 867.497,13.465 870.77,13.465 872.406,10.63 870.77,7.795 	"/>
	<circle fill="#A09188" stroke="#7F7B79" stroke-miterlimit="10" cx="311.811" cy="311.811" r="8.504"/>
	<polygon fill="#54504E" points="313.857,315.354 315.902,311.811 313.857,308.267 309.765,308.267 307.72,311.811 309.765,315.354 
			"/>
	<circle fill="#A09188" stroke="#7F7B79" stroke-miterlimit="10" cx="561.26" cy="243.78" r="8.504"/>
	<polygon fill="#54504E" points="563.306,247.323 565.352,243.78 563.306,240.236 559.214,240.236 557.168,243.78 559.214,247.323 	
		"/>
	<circle fill="#A09188" stroke="#7F7B79" stroke-miterlimit="10" cx="62.362" cy="243.78" r="8.504"/>
	<polygon fill="#54504E" points="64.408,247.323 66.454,243.78 64.408,240.236 60.317,240.236 58.271,243.78 60.317,247.323 	"/>
</g>
</svg>
