<?xml version="1.0" encoding="utf-8"?>
<!-- Generator: Adobe Illustrator 15.1.0, SVG Export Plug-In . SVG Version: 6.00 Build 0)  -->
<!DOCTYPE svg PUBLIC "-//W3C//DTD SVG 1.1//EN" "http://www.w3.org/Graphics/SVG/1.1/DTD/svg11.dtd">
<svg version="1.1" xmlns="http://www.w3.org/2000/svg" xmlns:xlink="http://www.w3.org/1999/xlink" x="0px" y="0px"
	 width="1190.55px" height="841.89px" viewBox="0 0 1190.55 841.89" enable-background="new 0 0 1190.55 841.89"
	 xml:space="preserve">
<g id="Cut">
	<g>
		<g>
			<path fill="#A09A97" d="M553.48,622.26c9.394,0,17.008,7.615,17.008,17.008c0,7.559,0,15.118,0,22.677
				c0,9.393-7.614,17.008-17.008,17.008c-26.457,0-52.913,0-79.37,0c-9.393,0-17.008-7.615-17.008-17.008c0-7.559,0-15.118,0-22.677
				c0-9.393,7.615-17.008,17.008-17.008C500.567,622.26,527.023,622.26,553.48,622.26z"/>
			<path fill="none" stroke="#A09A97" stroke-width="1.5" stroke-miterlimit="10" d="M553.48,622.26
				c9.394,0,17.008,7.615,17.008,17.008c0,7.559,0,15.118,0,22.677c0,9.393-7.614,17.008-17.008,17.008c-26.457,0-52.913,0-79.37,0
				c-9.393,0-17.008-7.615-17.008-17.008c0-7.559,0-15.118,0-22.677c0-9.393,7.615-17.008,17.008-17.008
				C500.567,622.26,527.023,622.26,553.48,622.26z"/>
		</g>
		<g>
			<path fill="#D3D1CB" d="M550.646,619.425c9.394,0,17.008,7.615,17.008,17.008c0,7.559,0,15.118,0,22.677
				c0,9.393-7.614,17.008-17.008,17.008c-26.457,0-52.913,0-79.37,0c-9.393,0-17.008-7.615-17.008-17.008c0-7.559,0-15.118,0-22.677
				c0-9.393,7.615-17.008,17.008-17.008C497.732,619.425,524.189,619.425,550.646,619.425z"/>
			<path fill="none" stroke="#A09A97" stroke-width="1.5" stroke-miterlimit="10" d="M550.646,619.425
				c9.394,0,17.008,7.615,17.008,17.008c0,7.559,0,15.118,0,22.677c0,9.393-7.614,17.008-17.008,17.008c-26.457,0-52.913,0-79.37,0
				c-9.393,0-17.008-7.615-17.008-17.008c0-7.559,0-15.118,0-22.677c0-9.393,7.615-17.008,17.008-17.008
				C497.732,619.425,524.189,619.425,550.646,619.425z"/>
		</g>
	</g>
	<g>
		<g>
			<path fill="#A09A97" d="M740.567,661.945c0,9.393-7.615,17.008-17.008,17.008c-26.457,0-52.914,0-79.37,0
				c-9.394,0-17.008-7.615-17.008-17.008c0-7.559,0-15.118,0-22.677c0-9.393,7.614-17.008,17.008-17.008c26.457,0,52.913,0,79.37,0
				c9.393,0,17.008,7.615,17.008,17.008C740.567,646.827,740.567,654.386,740.567,661.945z"/>
			<path fill="none" stroke="#A09A97" stroke-width="1.5" stroke-miterlimit="10" d="M740.567,661.945
				c0,9.393-7.615,17.008-17.008,17.008c-26.457,0-52.914,0-79.37,0c-9.394,0-17.008-7.615-17.008-17.008c0-7.559,0-15.118,0-22.677
				c0-9.393,7.614-17.008,17.008-17.008c26.457,0,52.913,0,79.37,0c9.393,0,17.008,7.615,17.008,17.008
				C740.567,646.827,740.567,654.386,740.567,661.945z"/>
		</g>
		<g>
			<path fill="#D3D1CB" d="M737.732,659.11c0,9.393-7.615,17.008-17.008,17.008c-26.457,0-52.914,0-79.37,0
				c-9.394,0-17.008-7.615-17.008-17.008c0-7.559,0-15.118,0-22.677c0-9.393,7.614-17.008,17.008-17.008c26.457,0,52.913,0,79.37,0
				c9.393,0,17.008,7.615,17.008,17.008C737.732,643.992,737.732,651.551,737.732,659.11z"/>
			<path fill="none" stroke="#A09A97" stroke-width="1.5" stroke-miterlimit="10" d="M737.732,659.11
				c0,9.393-7.615,17.008-17.008,17.008c-26.457,0-52.914,0-79.37,0c-9.394,0-17.008-7.615-17.008-17.008c0-7.559,0-15.118,0-22.677
				c0-9.393,7.614-17.008,17.008-17.008c26.457,0,52.913,0,79.37,0c9.393,0,17.008,7.615,17.008,17.008
				C737.732,643.992,737.732,651.551,737.732,659.11z"/>
		</g>
	</g>
	<g>
		<g>
			<path fill="#A09A97" d="M893.638,452.181c-7.559,0-15.118,0-22.677,0c-9.393,0-17.008-7.614-17.008-17.008
				c0-7.559,0-15.118,0-22.677c0-9.394-7.615-17.008-17.008-17.008c-7.559,0-15.118,0-22.677,0c-9.393,0-17.008-7.614-17.008-17.008
				c0-7.559,0-15.118,0-22.677c0-9.394-7.615-17.008-17.008-17.008c-7.559,0-15.118,0-22.677,0c-9.393,0-17.008-7.615-17.008-17.008
				c0-7.559,0-15.118,0-22.677c0-9.393,7.615-17.008,17.008-17.008c7.559,0,15.118,0,22.677,0c9.393,0,17.008-7.615,17.008-17.008
				c0-7.559,0-15.118,0-22.677c0-9.393-7.615-17.008-17.008-17.008c-7.559,0-15.118,0-22.677,0c-9.393,0-17.008,7.615-17.008,17.008
				c0,7.559,0,15.118,0,22.677c0,9.393-7.615,17.008-17.008,17.008c-7.559,0-15.118,0-22.677,0c-9.393,0-17.008,7.615-17.008,17.008
				c0,7.559,0,15.118,0,22.677c0,9.393-7.615,17.008-17.008,17.008c-45.354,0-90.709,0-136.063,0
				c-9.393,0-17.008-7.615-17.008-17.008c0-7.559,0-15.118,0-22.677c0-9.393-7.615-17.008-17.008-17.008c-7.559,0-15.118,0-22.677,0
				c-9.393,0-17.008-7.615-17.008-17.008c0-7.559,0-15.118,0-22.677c0-9.393-7.615-17.008-17.008-17.008c-7.559,0-15.118,0-22.677,0
				c-9.393,0-17.008,7.615-17.008,17.008c0,7.559,0,15.118,0,22.677c0,9.393,7.615,17.008,17.008,17.008c7.559,0,15.118,0,22.677,0
				c9.393,0,17.008,7.615,17.008,17.008c0,7.559,0,15.118,0,22.677c0,9.393-7.615,17.008-17.008,17.008c-7.559,0-15.118,0-22.677,0
				c-9.393,0-17.008,7.615-17.008,17.008c0,7.559,0,15.118,0,22.677c0,9.394-7.615,17.008-17.008,17.008c-7.559,0-15.118,0-22.677,0
				c-9.393,0-17.008,7.615-17.008,17.008c0,7.559,0,15.118,0,22.677c0,9.394-7.615,17.008-17.008,17.008c-7.559,0-15.118,0-22.677,0
				c-9.393,0-17.008,7.615-17.008,17.008c0,45.354,0,90.708,0,136.063c0,9.393,7.615,17.008,17.008,17.008
				c7.559,0,15.118,0,22.677,0c9.393,0,17.008-7.615,17.008-17.008c0-26.457,0-52.914,0-79.37c0-9.394,7.615-17.008,17.008-17.008
				c7.559,0,15.118,0,22.677,0c9.393,0,17.008,7.615,17.008,17.008c0,26.457,0,52.913,0,79.37c0,9.393,7.615,17.008,17.008,17.008
				c7.559,0,15.118,0,22.677,0c9.393,0,17.008-7.615,17.008-17.008c0-7.559,0-15.118,0-22.677c0-9.394,7.615-17.008,17.008-17.008
				c83.15,0,166.299,0,249.449,0c9.393,0,17.008,7.614,17.008,17.008c0,7.559,0,15.118,0,22.677c0,9.393,7.615,17.008,17.008,17.008
				c7.559,0,15.118,0,22.677,0c9.393,0,17.008-7.615,17.008-17.008c0-26.457,0-52.914,0-79.37c0-9.394,7.615-17.008,17.008-17.008
				c7.559,0,15.118,0,22.677,0c9.393,0,17.008,7.615,17.008,17.008c0,26.457,0,52.913,0,79.37c0,9.393,7.615,17.008,17.008,17.008
				c7.559,0,15.118,0,22.677,0c9.393,0,17.008-7.615,17.008-17.008c0-45.354,0-90.709,0-136.063
				C910.646,459.795,903.031,452.181,893.638,452.181z M485.449,506.039c-32.876,0-59.528-26.651-59.528-59.527
				c0-32.876,26.651-59.528,59.528-59.528c32.876,0,59.527,26.651,59.527,59.528C544.976,479.388,518.325,506.039,485.449,506.039z
				 M712.22,506.039c-32.876,0-59.527-26.651-59.527-59.527c0-32.876,26.651-59.528,59.527-59.528
				c32.876,0,59.528,26.651,59.528,59.528C771.748,479.388,745.097,506.039,712.22,506.039z"/>
			<path fill="none" stroke="#A09A97" stroke-width="1.5" stroke-miterlimit="10" d="M893.638,452.181c-7.559,0-15.118,0-22.677,0
				c-9.393,0-17.008-7.614-17.008-17.008c0-7.559,0-15.118,0-22.677c0-9.394-7.615-17.008-17.008-17.008c-7.559,0-15.118,0-22.677,0
				c-9.393,0-17.008-7.614-17.008-17.008c0-7.559,0-15.118,0-22.677c0-9.394-7.615-17.008-17.008-17.008c-7.559,0-15.118,0-22.677,0
				c-9.393,0-17.008-7.615-17.008-17.008c0-7.559,0-15.118,0-22.677c0-9.393,7.615-17.008,17.008-17.008c7.559,0,15.118,0,22.677,0
				c9.393,0,17.008-7.615,17.008-17.008c0-7.559,0-15.118,0-22.677c0-9.393-7.615-17.008-17.008-17.008c-7.559,0-15.118,0-22.677,0
				c-9.393,0-17.008,7.615-17.008,17.008c0,7.559,0,15.118,0,22.677c0,9.393-7.615,17.008-17.008,17.008c-7.559,0-15.118,0-22.677,0
				c-9.393,0-17.008,7.615-17.008,17.008c0,7.559,0,15.118,0,22.677c0,9.393-7.615,17.008-17.008,17.008
				c-45.354,0-90.709,0-136.063,0c-9.393,0-17.008-7.615-17.008-17.008c0-7.559,0-15.118,0-22.677
				c0-9.393-7.615-17.008-17.008-17.008c-7.559,0-15.118,0-22.677,0c-9.393,0-17.008-7.615-17.008-17.008c0-7.559,0-15.118,0-22.677
				c0-9.393-7.615-17.008-17.008-17.008c-7.559,0-15.118,0-22.677,0c-9.393,0-17.008,7.615-17.008,17.008c0,7.559,0,15.118,0,22.677
				c0,9.393,7.615,17.008,17.008,17.008c7.559,0,15.118,0,22.677,0c9.393,0,17.008,7.615,17.008,17.008c0,7.559,0,15.118,0,22.677
				c0,9.393-7.615,17.008-17.008,17.008c-7.559,0-15.118,0-22.677,0c-9.393,0-17.008,7.615-17.008,17.008c0,7.559,0,15.118,0,22.677
				c0,9.394-7.615,17.008-17.008,17.008c-7.559,0-15.118,0-22.677,0c-9.393,0-17.008,7.615-17.008,17.008c0,7.559,0,15.118,0,22.677
				c0,9.394-7.615,17.008-17.008,17.008c-7.559,0-15.118,0-22.677,0c-9.393,0-17.008,7.615-17.008,17.008
				c0,45.354,0,90.708,0,136.063c0,9.393,7.615,17.008,17.008,17.008c7.559,0,15.118,0,22.677,0c9.393,0,17.008-7.615,17.008-17.008
				c0-26.457,0-52.914,0-79.37c0-9.394,7.615-17.008,17.008-17.008c7.559,0,15.118,0,22.677,0c9.393,0,17.008,7.615,17.008,17.008
				c0,26.457,0,52.913,0,79.37c0,9.393,7.615,17.008,17.008,17.008c7.559,0,15.118,0,22.677,0c9.393,0,17.008-7.615,17.008-17.008
				c0-7.559,0-15.118,0-22.677c0-9.394,7.615-17.008,17.008-17.008c83.15,0,166.299,0,249.449,0c9.393,0,17.008,7.614,17.008,17.008
				c0,7.559,0,15.118,0,22.677c0,9.393,7.615,17.008,17.008,17.008c7.559,0,15.118,0,22.677,0c9.393,0,17.008-7.615,17.008-17.008
				c0-26.457,0-52.914,0-79.37c0-9.394,7.615-17.008,17.008-17.008c7.559,0,15.118,0,22.677,0c9.393,0,17.008,7.615,17.008,17.008
				c0,26.457,0,52.913,0,79.37c0,9.393,7.615,17.008,17.008,17.008c7.559,0,15.118,0,22.677,0c9.393,0,17.008-7.615,17.008-17.008
				c0-45.354,0-90.709,0-136.063C910.646,459.795,903.031,452.181,893.638,452.181z M485.449,506.039
				c-32.876,0-59.528-26.651-59.528-59.527c0-32.876,26.651-59.528,59.528-59.528c32.876,0,59.527,26.651,59.527,59.528
				C544.976,479.388,518.325,506.039,485.449,506.039z M712.22,506.039c-32.876,0-59.527-26.651-59.527-59.527
				c0-32.876,26.651-59.528,59.527-59.528c32.876,0,59.528,26.651,59.528,59.528C771.748,479.388,745.097,506.039,712.22,506.039z"
				/>
		</g>
		<g>
			<path fill="#D3D1CB" d="M890.803,449.346c-7.559,0-15.118,0-22.677,0c-9.393,0-17.008-7.614-17.008-17.008
				c0-7.559,0-15.118,0-22.677c0-9.394-7.615-17.008-17.008-17.008c-7.559,0-15.118,0-22.677,0c-9.393,0-17.008-7.614-17.008-17.008
				c0-7.559,0-15.118,0-22.677c0-9.394-7.615-17.008-17.008-17.008c-7.559,0-15.118,0-22.677,0c-9.393,0-17.008-7.615-17.008-17.008
				c0-7.559,0-15.118,0-22.677c0-9.393,7.615-17.008,17.008-17.008c7.559,0,15.118,0,22.677,0c9.393,0,17.008-7.615,17.008-17.008
				c0-7.559,0-15.118,0-22.677c0-9.393-7.615-17.008-17.008-17.008c-7.559,0-15.118,0-22.677,0c-9.393,0-17.008,7.615-17.008,17.008
				c0,7.559,0,15.118,0,22.677c0,9.393-7.615,17.008-17.008,17.008c-7.559,0-15.118,0-22.677,0c-9.393,0-17.008,7.615-17.008,17.008
				c0,7.559,0,15.118,0,22.677c0,9.393-7.615,17.008-17.008,17.008c-45.354,0-90.709,0-136.063,0
				c-9.393,0-17.008-7.615-17.008-17.008c0-7.559,0-15.118,0-22.677c0-9.393-7.615-17.008-17.008-17.008c-7.559,0-15.118,0-22.677,0
				c-9.393,0-17.008-7.615-17.008-17.008c0-7.559,0-15.118,0-22.677c0-9.393-7.615-17.008-17.008-17.008c-7.559,0-15.118,0-22.677,0
				c-9.393,0-17.008,7.615-17.008,17.008c0,7.559,0,15.118,0,22.677c0,9.393,7.615,17.008,17.008,17.008c7.559,0,15.118,0,22.677,0
				c9.393,0,17.008,7.615,17.008,17.008c0,7.559,0,15.118,0,22.677c0,9.393-7.615,17.008-17.008,17.008c-7.559,0-15.118,0-22.677,0
				c-9.393,0-17.008,7.615-17.008,17.008c0,7.559,0,15.118,0,22.677c0,9.394-7.615,17.008-17.008,17.008c-7.559,0-15.118,0-22.677,0
				c-9.393,0-17.008,7.615-17.008,17.008c0,7.559,0,15.118,0,22.677c0,9.394-7.615,17.008-17.008,17.008c-7.559,0-15.118,0-22.677,0
				c-9.393,0-17.008,7.615-17.008,17.008c0,45.354,0,90.708,0,136.063c0,9.393,7.615,17.008,17.008,17.008
				c7.559,0,15.118,0,22.677,0c9.393,0,17.008-7.615,17.008-17.008c0-26.457,0-52.914,0-79.37c0-9.394,7.615-17.008,17.008-17.008
				c7.559,0,15.118,0,22.677,0c9.393,0,17.008,7.615,17.008,17.008c0,26.457,0,52.913,0,79.37c0,9.393,7.615,17.008,17.008,17.008
				c7.559,0,15.118,0,22.677,0c9.393,0,17.008-7.615,17.008-17.008c0-7.559,0-15.118,0-22.677c0-9.394,7.615-17.008,17.008-17.008
				c83.15,0,166.299,0,249.449,0c9.393,0,17.008,7.614,17.008,17.008c0,7.559,0,15.118,0,22.677c0,9.393,7.615,17.008,17.008,17.008
				c7.559,0,15.118,0,22.677,0c9.393,0,17.008-7.615,17.008-17.008c0-26.457,0-52.914,0-79.37c0-9.394,7.615-17.008,17.008-17.008
				c7.559,0,15.118,0,22.677,0c9.393,0,17.008,7.615,17.008,17.008c0,26.457,0,52.913,0,79.37c0,9.393,7.615,17.008,17.008,17.008
				c7.559,0,15.118,0,22.677,0c9.393,0,17.008-7.615,17.008-17.008c0-45.354,0-90.709,0-136.063
				C907.811,456.961,900.196,449.346,890.803,449.346z M482.614,503.205c-32.876,0-59.528-26.651-59.528-59.527
				c0-32.876,26.651-59.528,59.528-59.528c32.876,0,59.527,26.651,59.527,59.528C542.142,476.553,515.49,503.205,482.614,503.205z
				 M709.386,503.205c-32.876,0-59.527-26.651-59.527-59.527c0-32.876,26.651-59.528,59.527-59.528
				c32.876,0,59.528,26.651,59.528,59.528C768.914,476.553,742.262,503.205,709.386,503.205z"/>
			<path fill="none" stroke="#A09A97" stroke-width="1.5" stroke-miterlimit="10" d="M890.803,449.346c-7.559,0-15.118,0-22.677,0
				c-9.393,0-17.008-7.614-17.008-17.008c0-7.559,0-15.118,0-22.677c0-9.394-7.615-17.008-17.008-17.008c-7.559,0-15.118,0-22.677,0
				c-9.393,0-17.008-7.614-17.008-17.008c0-7.559,0-15.118,0-22.677c0-9.394-7.615-17.008-17.008-17.008c-7.559,0-15.118,0-22.677,0
				c-9.393,0-17.008-7.615-17.008-17.008c0-7.559,0-15.118,0-22.677c0-9.393,7.615-17.008,17.008-17.008c7.559,0,15.118,0,22.677,0
				c9.393,0,17.008-7.615,17.008-17.008c0-7.559,0-15.118,0-22.677c0-9.393-7.615-17.008-17.008-17.008c-7.559,0-15.118,0-22.677,0
				c-9.393,0-17.008,7.615-17.008,17.008c0,7.559,0,15.118,0,22.677c0,9.393-7.615,17.008-17.008,17.008c-7.559,0-15.118,0-22.677,0
				c-9.393,0-17.008,7.615-17.008,17.008c0,7.559,0,15.118,0,22.677c0,9.393-7.615,17.008-17.008,17.008
				c-45.354,0-90.709,0-136.063,0c-9.393,0-17.008-7.615-17.008-17.008c0-7.559,0-15.118,0-22.677
				c0-9.393-7.615-17.008-17.008-17.008c-7.559,0-15.118,0-22.677,0c-9.393,0-17.008-7.615-17.008-17.008c0-7.559,0-15.118,0-22.677
				c0-9.393-7.615-17.008-17.008-17.008c-7.559,0-15.118,0-22.677,0c-9.393,0-17.008,7.615-17.008,17.008c0,7.559,0,15.118,0,22.677
				c0,9.393,7.615,17.008,17.008,17.008c7.559,0,15.118,0,22.677,0c9.393,0,17.008,7.615,17.008,17.008c0,7.559,0,15.118,0,22.677
				c0,9.393-7.615,17.008-17.008,17.008c-7.559,0-15.118,0-22.677,0c-9.393,0-17.008,7.615-17.008,17.008c0,7.559,0,15.118,0,22.677
				c0,9.394-7.615,17.008-17.008,17.008c-7.559,0-15.118,0-22.677,0c-9.393,0-17.008,7.615-17.008,17.008c0,7.559,0,15.118,0,22.677
				c0,9.394-7.615,17.008-17.008,17.008c-7.559,0-15.118,0-22.677,0c-9.393,0-17.008,7.615-17.008,17.008
				c0,45.354,0,90.708,0,136.063c0,9.393,7.615,17.008,17.008,17.008c7.559,0,15.118,0,22.677,0c9.393,0,17.008-7.615,17.008-17.008
				c0-26.457,0-52.914,0-79.37c0-9.394,7.615-17.008,17.008-17.008c7.559,0,15.118,0,22.677,0c9.393,0,17.008,7.615,17.008,17.008
				c0,26.457,0,52.913,0,79.37c0,9.393,7.615,17.008,17.008,17.008c7.559,0,15.118,0,22.677,0c9.393,0,17.008-7.615,17.008-17.008
				c0-7.559,0-15.118,0-22.677c0-9.394,7.615-17.008,17.008-17.008c83.15,0,166.299,0,249.449,0c9.393,0,17.008,7.614,17.008,17.008
				c0,7.559,0,15.118,0,22.677c0,9.393,7.615,17.008,17.008,17.008c7.559,0,15.118,0,22.677,0c9.393,0,17.008-7.615,17.008-17.008
				c0-26.457,0-52.914,0-79.37c0-9.394,7.615-17.008,17.008-17.008c7.559,0,15.118,0,22.677,0c9.393,0,17.008,7.615,17.008,17.008
				c0,26.457,0,52.913,0,79.37c0,9.393,7.615,17.008,17.008,17.008c7.559,0,15.118,0,22.677,0c9.393,0,17.008-7.615,17.008-17.008
				c0-45.354,0-90.709,0-136.063C907.811,456.961,900.196,449.346,890.803,449.346z M482.614,503.205
				c-32.876,0-59.528-26.651-59.528-59.527c0-32.876,26.651-59.528,59.528-59.528c32.876,0,59.527,26.651,59.527,59.528
				C542.142,476.553,515.49,503.205,482.614,503.205z M709.386,503.205c-32.876,0-59.527-26.651-59.527-59.527
				c0-32.876,26.651-59.528,59.527-59.528c32.876,0,59.528,26.651,59.528,59.528C768.914,476.553,742.262,503.205,709.386,503.205z"
				/>
		</g>
	</g>
</g>
<g id="Eyebrows">
	<g>
		<g>
			<path fill="#282828" d="M744.11,343.047c-21.732,0-43.465,0-65.197,0c-1.566,0-2.835,1.269-2.835,2.834c0,0.473,0,0.945,0,1.417
				c0,1.565-1.269,2.834-2.834,2.834c-12.284,0-24.567,0-36.851,0c-1.565,0-2.834-1.269-2.834-2.834c0-2.835,0-5.669,0-8.504
				c0-1.566,1.269-2.835,2.834-2.835c5.197,0,10.394,0,15.591,0c1.565,0,2.834-1.269,2.834-2.834c0-0.473,0-0.945,0-1.417
				c0-1.565,1.269-2.834,2.835-2.834c7.559,0,15.118,0,22.677,0c1.566,0,2.835-1.269,2.835-2.834c0-0.473,0-0.945,0-1.417
				c0-1.565,1.269-2.834,2.834-2.834c17.008,0,34.016,0,51.023,0c1.566,0,2.835,1.269,2.835,2.834c0,0.473,0,0.945,0,1.417
				c0,1.565,1.269,2.834,2.834,2.834c7.559,0,15.118,0,22.677,0c1.565,0,2.834,1.269,2.834,2.834c0,0.473,0,0.945,0,1.417
				c0,1.565,1.269,2.834,2.835,2.834c5.197,0,10.394,0,15.59,0c1.565,0,2.834,1.269,2.834,2.835c0,2.834,0,5.669,0,8.504
				c0,1.565-1.269,2.834-2.834,2.834c-12.283,0-24.567,0-36.851,0c-1.565,0-2.834-1.269-2.834-2.834c0-0.473,0-0.945,0-1.417
				C746.945,344.316,745.676,343.047,744.11,343.047z"/>
			<path fill="none" stroke="#282828" stroke-miterlimit="10" d="M744.11,343.047c-21.732,0-43.465,0-65.197,0
				c-1.566,0-2.835,1.269-2.835,2.834c0,0.473,0,0.945,0,1.417c0,1.565-1.269,2.834-2.834,2.834c-12.284,0-24.567,0-36.851,0
				c-1.565,0-2.834-1.269-2.834-2.834c0-2.835,0-5.669,0-8.504c0-1.566,1.269-2.835,2.834-2.835c5.197,0,10.394,0,15.591,0
				c1.565,0,2.834-1.269,2.834-2.834c0-0.473,0-0.945,0-1.417c0-1.565,1.269-2.834,2.835-2.834c7.559,0,15.118,0,22.677,0
				c1.566,0,2.835-1.269,2.835-2.834c0-0.473,0-0.945,0-1.417c0-1.565,1.269-2.834,2.834-2.834c17.008,0,34.016,0,51.023,0
				c1.566,0,2.835,1.269,2.835,2.834c0,0.473,0,0.945,0,1.417c0,1.565,1.269,2.834,2.834,2.834c7.559,0,15.118,0,22.677,0
				c1.565,0,2.834,1.269,2.834,2.834c0,0.473,0,0.945,0,1.417c0,1.565,1.269,2.834,2.835,2.834c5.197,0,10.394,0,15.59,0
				c1.565,0,2.834,1.269,2.834,2.835c0,2.834,0,5.669,0,8.504c0,1.565-1.269,2.834-2.834,2.834c-12.283,0-24.567,0-36.851,0
				c-1.565,0-2.834-1.269-2.834-2.834c0-0.473,0-0.945,0-1.417C746.945,344.316,745.676,343.047,744.11,343.047z"/>
		</g>
		<g>
			<path fill="#5B5B5A" d="M741.984,340.921c-21.732,0-43.465,0-65.197,0c-1.566,0-2.835,1.269-2.835,2.834c0,0.473,0,0.945,0,1.417
				c0,1.565-1.269,2.834-2.834,2.834c-12.284,0-24.567,0-36.851,0c-1.565,0-2.834-1.269-2.834-2.834c0-2.835,0-5.669,0-8.504
				c0-1.566,1.269-2.835,2.834-2.835c5.197,0,10.394,0,15.591,0c1.565,0,2.834-1.269,2.834-2.834c0-0.473,0-0.945,0-1.417
				c0-1.565,1.269-2.834,2.835-2.834c7.559,0,15.118,0,22.677,0c1.566,0,2.835-1.269,2.835-2.834c0-0.473,0-0.945,0-1.417
				c0-1.565,1.269-2.834,2.834-2.834c17.008,0,34.016,0,51.023,0c1.566,0,2.835,1.269,2.835,2.834c0,0.473,0,0.945,0,1.417
				c0,1.565,1.269,2.834,2.834,2.834c7.559,0,15.118,0,22.677,0c1.565,0,2.834,1.269,2.834,2.834c0,0.473,0,0.945,0,1.417
				c0,1.565,1.269,2.834,2.835,2.834c5.197,0,10.394,0,15.59,0c1.565,0,2.834,1.269,2.834,2.835c0,2.834,0,5.669,0,8.504
				c0,1.565-1.269,2.834-2.834,2.834c-12.283,0-24.567,0-36.851,0c-1.565,0-2.834-1.269-2.834-2.834c0-0.473,0-0.945,0-1.417
				C744.819,342.19,743.55,340.921,741.984,340.921z"/>
			<path fill="none" stroke="#262626" stroke-miterlimit="10" d="M741.984,340.921c-21.732,0-43.465,0-65.197,0
				c-1.566,0-2.835,1.269-2.835,2.834c0,0.473,0,0.945,0,1.417c0,1.565-1.269,2.834-2.834,2.834c-12.284,0-24.567,0-36.851,0
				c-1.565,0-2.834-1.269-2.834-2.834c0-2.835,0-5.669,0-8.504c0-1.566,1.269-2.835,2.834-2.835c5.197,0,10.394,0,15.591,0
				c1.565,0,2.834-1.269,2.834-2.834c0-0.473,0-0.945,0-1.417c0-1.565,1.269-2.834,2.835-2.834c7.559,0,15.118,0,22.677,0
				c1.566,0,2.835-1.269,2.835-2.834c0-0.473,0-0.945,0-1.417c0-1.565,1.269-2.834,2.834-2.834c17.008,0,34.016,0,51.023,0
				c1.566,0,2.835,1.269,2.835,2.834c0,0.473,0,0.945,0,1.417c0,1.565,1.269,2.834,2.834,2.834c7.559,0,15.118,0,22.677,0
				c1.565,0,2.834,1.269,2.834,2.834c0,0.473,0,0.945,0,1.417c0,1.565,1.269,2.834,2.835,2.834c5.197,0,10.394,0,15.59,0
				c1.565,0,2.834,1.269,2.834,2.835c0,2.834,0,5.669,0,8.504c0,1.565-1.269,2.834-2.834,2.834c-12.283,0-24.567,0-36.851,0
				c-1.565,0-2.834-1.269-2.834-2.834c0-0.473,0-0.945,0-1.417C744.819,342.19,743.55,340.921,741.984,340.921z"/>
		</g>
	</g>
	<g>
		<g>
			<path fill="#282828" d="M517.338,343.047c1.566,0,2.835,1.269,2.835,2.834c0,0.473,0,0.945,0,1.417
				c0,1.565,1.269,2.834,2.834,2.834c12.284,0,24.567,0,36.851,0c1.565,0,2.834-1.269,2.834-2.834c0-2.835,0-5.669,0-8.504
				c0-1.566-1.269-2.835-2.834-2.835c-5.197,0-10.394,0-15.591,0c-1.565,0-2.834-1.269-2.834-2.834c0-0.473,0-0.945,0-1.417
				c0-1.565-1.269-2.834-2.835-2.834c-7.559,0-15.118,0-22.677,0c-1.566,0-2.835-1.269-2.835-2.834c0-0.473,0-0.945,0-1.417
				c0-1.565-1.269-2.834-2.834-2.834c-17.008,0-34.016,0-51.023,0c-1.566,0-2.835,1.269-2.835,2.834c0,0.473,0,0.945,0,1.417
				c0,1.565-1.269,2.834-2.834,2.834c-7.559,0-15.118,0-22.677,0c-1.565,0-2.834,1.269-2.834,2.834c0,0.473,0,0.945,0,1.417
				c0,1.565-1.269,2.834-2.835,2.834c-5.197,0-10.394,0-15.59,0c-1.565,0-2.834,1.269-2.834,2.835c0,2.834,0,5.669,0,8.504
				c0,1.565,1.269,2.834,2.834,2.834c12.283,0,24.567,0,36.851,0c1.565,0,2.834-1.269,2.834-2.834c0-0.473,0-0.945,0-1.417
				c0-1.565,1.269-2.834,2.834-2.834C473.874,343.047,495.606,343.047,517.338,343.047z"/>
			<path fill="none" stroke="#282828" stroke-miterlimit="10" d="M517.338,343.047c1.566,0,2.835,1.269,2.835,2.834
				c0,0.473,0,0.945,0,1.417c0,1.565,1.269,2.834,2.834,2.834c12.284,0,24.567,0,36.851,0c1.565,0,2.834-1.269,2.834-2.834
				c0-2.835,0-5.669,0-8.504c0-1.566-1.269-2.835-2.834-2.835c-5.197,0-10.394,0-15.591,0c-1.565,0-2.834-1.269-2.834-2.834
				c0-0.473,0-0.945,0-1.417c0-1.565-1.269-2.834-2.835-2.834c-7.559,0-15.118,0-22.677,0c-1.566,0-2.835-1.269-2.835-2.834
				c0-0.473,0-0.945,0-1.417c0-1.565-1.269-2.834-2.834-2.834c-17.008,0-34.016,0-51.023,0c-1.566,0-2.835,1.269-2.835,2.834
				c0,0.473,0,0.945,0,1.417c0,1.565-1.269,2.834-2.834,2.834c-7.559,0-15.118,0-22.677,0c-1.565,0-2.834,1.269-2.834,2.834
				c0,0.473,0,0.945,0,1.417c0,1.565-1.269,2.834-2.835,2.834c-5.197,0-10.394,0-15.59,0c-1.565,0-2.834,1.269-2.834,2.835
				c0,2.834,0,5.669,0,8.504c0,1.565,1.269,2.834,2.834,2.834c12.283,0,24.567,0,36.851,0c1.565,0,2.834-1.269,2.834-2.834
				c0-0.473,0-0.945,0-1.417c0-1.565,1.269-2.834,2.834-2.834C473.874,343.047,495.606,343.047,517.338,343.047z"/>
		</g>
		<g>
			<path fill="#5B5B5A" d="M515.212,340.921c1.566,0,2.835,1.269,2.835,2.834c0,0.473,0,0.945,0,1.417
				c0,1.565,1.269,2.834,2.834,2.834c12.284,0,24.567,0,36.851,0c1.565,0,2.834-1.269,2.834-2.834c0-2.835,0-5.669,0-8.504
				c0-1.566-1.269-2.835-2.834-2.835c-5.197,0-10.394,0-15.591,0c-1.565,0-2.834-1.269-2.834-2.834c0-0.473,0-0.945,0-1.417
				c0-1.565-1.269-2.834-2.835-2.834c-7.559,0-15.118,0-22.677,0c-1.566,0-2.835-1.269-2.835-2.834c0-0.473,0-0.945,0-1.417
				c0-1.565-1.269-2.834-2.834-2.834c-17.008,0-34.016,0-51.023,0c-1.566,0-2.835,1.269-2.835,2.834c0,0.473,0,0.945,0,1.417
				c0,1.565-1.269,2.834-2.834,2.834c-7.559,0-15.118,0-22.677,0c-1.565,0-2.834,1.269-2.834,2.834c0,0.473,0,0.945,0,1.417
				c0,1.565-1.269,2.834-2.835,2.834c-5.197,0-10.394,0-15.59,0c-1.565,0-2.834,1.269-2.834,2.835c0,2.834,0,5.669,0,8.504
				c0,1.565,1.269,2.834,2.834,2.834c12.283,0,24.567,0,36.851,0c1.565,0,2.834-1.269,2.834-2.834c0-0.473,0-0.945,0-1.417
				c0-1.565,1.269-2.834,2.834-2.834C471.748,340.921,493.48,340.921,515.212,340.921z"/>
			<path fill="none" stroke="#262626" stroke-miterlimit="10" d="M515.212,340.921c1.566,0,2.835,1.269,2.835,2.834
				c0,0.473,0,0.945,0,1.417c0,1.565,1.269,2.834,2.834,2.834c12.284,0,24.567,0,36.851,0c1.565,0,2.834-1.269,2.834-2.834
				c0-2.835,0-5.669,0-8.504c0-1.566-1.269-2.835-2.834-2.835c-5.197,0-10.394,0-15.591,0c-1.565,0-2.834-1.269-2.834-2.834
				c0-0.473,0-0.945,0-1.417c0-1.565-1.269-2.834-2.835-2.834c-7.559,0-15.118,0-22.677,0c-1.566,0-2.835-1.269-2.835-2.834
				c0-0.473,0-0.945,0-1.417c0-1.565-1.269-2.834-2.834-2.834c-17.008,0-34.016,0-51.023,0c-1.566,0-2.835,1.269-2.835,2.834
				c0,0.473,0,0.945,0,1.417c0,1.565-1.269,2.834-2.834,2.834c-7.559,0-15.118,0-22.677,0c-1.565,0-2.834,1.269-2.834,2.834
				c0,0.473,0,0.945,0,1.417c0,1.565-1.269,2.834-2.835,2.834c-5.197,0-10.394,0-15.59,0c-1.565,0-2.834,1.269-2.834,2.835
				c0,2.834,0,5.669,0,8.504c0,1.565,1.269,2.834,2.834,2.834c12.283,0,24.567,0,36.851,0c1.565,0,2.834-1.269,2.834-2.834
				c0-0.473,0-0.945,0-1.417c0-1.565,1.269-2.834,2.834-2.834C471.748,340.921,493.48,340.921,515.212,340.921z"/>
		</g>
	</g>
</g>
<g id="Screws">
	<circle fill="#A09188" stroke="#7F7B79" stroke-miterlimit="10" cx="596" cy="534.386" r="8.504"/>
	<polygon fill="#54504E" points="598.046,537.929 600.091,534.386 598.046,530.842 593.954,530.842 591.909,534.386 
		593.954,537.929 	"/>
	<circle fill="#A09188" stroke="#7F7B79" stroke-miterlimit="10" cx="845.449" cy="466.354" r="8.504"/>
	<polygon fill="#54504E" points="847.495,469.897 849.541,466.354 847.495,462.811 843.403,462.811 841.357,466.354 
		843.403,469.897 	"/>
	<circle fill="#A09188" stroke="#7F7B79" stroke-miterlimit="10" cx="346.551" cy="466.354" r="8.504"/>
	<polygon fill="#54504E" points="348.597,469.897 350.643,466.354 348.597,462.811 344.506,462.811 342.46,466.354 344.506,469.897 
			"/>
	<circle fill="#A09188" stroke="#7F7B79" stroke-miterlimit="10" cx="482.614" cy="647.771" r="6.378"/>
	<polygon fill="#54504E" points="480.978,644.937 479.341,647.771 480.978,650.606 484.251,650.606 485.887,647.771 
		484.251,644.937 	"/>
	<circle fill="#A09188" stroke="#7F7B79" stroke-miterlimit="10" cx="709.386" cy="647.771" r="6.378"/>
	<polygon fill="#54504E" points="707.749,644.937 706.113,647.771 707.749,650.606 711.022,650.606 712.659,647.771 
		711.022,644.937 	"/>
	<circle fill="#A09188" stroke="#7F7B79" stroke-miterlimit="10" cx="709.386" cy="330.292" r="6.378"/>
	<polygon fill="#54504E" points="707.749,327.457 706.113,330.292 707.749,333.126 711.022,333.126 712.659,330.292 
		711.022,327.457 	"/>
	<circle fill="#A09188" stroke="#7F7B79" stroke-miterlimit="10" cx="482.614" cy="330.292" r="6.378"/>
	<polygon fill="#54504E" points="480.978,327.457 479.341,330.292 480.978,333.126 484.251,333.126 485.887,330.292 
		484.251,327.457 	"/>
</g>
</svg>
